<svg width="12" height="12" viewBox="0 0 12 12" fill="none" xmlns="http://www.w3.org/2000/svg">
<path fill-rule="evenodd" clip-rule="evenodd" d="M6 0C4.4087 0 2.88258 0.632141 1.75736 1.75736C0.632141 2.88258 0 4.4087 0 6C0 7.5913 0.632141 9.11742 1.75736 10.2426C2.88258 11.3679 4.4087 12 6 12C7.5913 12 9.11742 11.3679 10.2426 10.2426C11.3679 9.11742 12 7.5913 12 6C12 4.4087 11.3679 2.88258 10.2426 1.75736C9.11742 0.632141 7.5913 0 6 0ZM2.60589 2.60589C3.50606 1.70571 4.72696 1.2 6 1.2C7.27304 1.2 8.49394 1.70571 9.39411 2.60589C10.2943 3.50606 10.8 4.72696 10.8 6C10.8 7.27304 10.2943 8.49394 9.39411 9.39411C8.49394 10.2943 7.27304 10.8 6 10.8C4.72696 10.8 3.50606 10.2943 2.60589 9.39411C1.70571 8.49394 1.2 7.27304 1.2 6C1.2 4.72696 1.70571 3.50606 2.60589 2.60589ZM6 4.19996C6.49706 4.19996 6.9 3.79702 6.9 3.29996C6.9 2.80291 6.49706 2.39996 6 2.39996C5.50294 2.39996 5.1 2.80291 5.1 3.29996C5.1 3.79702 5.50294 4.19996 6 4.19996ZM6.7499 4.80271V9.60001H5.2499V4.80271H6.7499Z" fill="black"/>
</svg>
