<svg width="24" height="24" viewBox="0 0 24 24" fill="none" xmlns="http://www.w3.org/2000/svg">
<path d="M11.6936 11.4667V7.85H12.527C13.1381 7.85 13.577 7.97778 13.8436 8.23333C14.1214 8.48889 14.2603 8.92778 14.2603 9.55C14.2603 10.7944 13.6714 11.4667 12.4936 11.4667H11.6936Z" fill="#CCC8C4"/>
<path fill-rule="evenodd" clip-rule="evenodd" d="M12 2C9.34784 2 6.8043 3.05357 4.92893 4.92893C3.05357 6.8043 2 9.34784 2 12C2 14.6522 3.05357 17.1957 4.92893 19.0711C6.8043 20.9464 9.34784 22 12 22C14.6522 22 17.1957 20.9464 19.0711 19.0711C20.9464 17.1957 22 14.6522 22 12C22 9.34784 20.9464 6.8043 19.0711 4.92893C17.1957 3.05357 14.6522 2 12 2ZM9.31029 6V11.4667H8V13H9.31029V14H8V15.4833H9.31029V18H11.6936V15.4833H15V14H11.6936V13H12.4603C13.0714 13 13.6325 12.9389 14.1436 12.8167C14.6547 12.6944 15.0936 12.4944 15.4603 12.2167C15.827 11.9389 16.1103 11.5889 16.3103 11.1667C16.5214 10.7333 16.627 10.1722 16.627 9.55C16.627 8.93889 16.527 8.39444 16.327 7.95C16.127 7.50555 15.8492 7.13889 15.4936 6.85C15.1381 6.56111 14.7047 6.35 14.1936 6.21667C13.6936 6.07222 13.1381 6 12.527 6H9.31029Z" fill="#CCC8C4"/>
</svg>
