<svg width="183" height="31" fill="none" xmlns="http://www.w3.org/2000/svg"><path d="M11.288 26.916h4.005V3.91H9.467C3.608 3.91.53 6.922.53 11.358c0 3.542 1.688 5.627 4.7 7.779L0 26.916h4.336l5.826-8.706-2.019-1.357c-2.45-1.655-3.641-2.946-3.641-5.727 0-2.45 1.721-4.104 4.998-4.104h1.788v19.894Zm77.226.33c1.82 0 3.111-.33 4.071-1.025V23.01c-.993.695-2.184 1.125-3.84 1.125-2.813 0-3.972-2.184-3.972-5.627 0-3.608 1.424-5.462 4.006-5.462 1.522 0 3.012.53 3.806 1.026V10.73c-.827-.463-2.284-.794-4.237-.794-5.031 0-7.646 3.608-7.646 8.672 0 5.561 2.549 8.64 7.812 8.64ZM63.886 25.79v-3.21c-1.225.827-3.277 1.555-5.197 1.555-2.88 0-3.972-1.357-4.138-4.137h9.5v-2.086c0-5.793-2.548-7.977-6.487-7.977-4.8 0-7.084 3.674-7.084 8.705 0 5.793 2.847 8.607 7.878 8.607 2.516 0 4.37-.662 5.528-1.457Zm-36.08-15.524v6.587h-5.264v-6.587h-3.939v16.65h3.94v-6.951h5.262v6.95h3.94v-16.65h-3.94ZM49.52 23.804h-1.754V10.266H36.279v1.423c0 4.072-.264 9.335-1.655 12.115H33.4v6.919h3.64v-3.807h8.839v3.806h3.641v-6.918Zm26.945 3.112h4.468l-6.322-8.97 5.561-7.68H76.2l-5.561 7.68v-7.68h-3.94v16.65h3.94V18.74l5.826 8.176Zm-18.967-13.87c1.953 0 2.548 1.622 2.548 3.708v.33h-5.495c.1-2.647 1.06-4.038 2.947-4.038ZM43.827 23.804h-5.561c1.092-2.515 1.39-7.05 1.39-9.93v-.497h4.17v10.427ZM126.056 23.707a14.038 14.038 0 0 1-9.321 3.538c-7.465 0-13.059-5.782-13.059-12.39 0-6.216 4.955-11.29 11.099-11.29 5.798 0 9.982 4.495 9.982 9.363 0 4.562-3.6 8.263-8.022 8.263-4.046 0-6.901-3.065-6.901-6.337 0-2.936 2.271-5.235 4.943-5.235 2.365 0 3.824 1.723 3.824 3.309 0 1.375-.968 2.207-1.866 2.207-.317 0-.438-.067-.566-.147a1.79 1.79 0 0 0 .36-1.36 1.774 1.774 0 0 0-2.013-1.501c-.83.124-1.358.689-1.619 1.107a3.048 3.048 0 0 0-.452 1.62c0 2.335 2.176 3.845 4.29 3.845 3.088.002 5.411-2.695 5.411-5.771 0-3.766-3.264-6.874-7.369-6.874-4.768 0-8.488 4.037-8.488 8.8 0 5.398 4.602 9.9 10.448 9.9 6.464 0 11.567-5.382 11.567-11.828 0-6.93-5.867-12.926-13.527-12.926-8.149 0-14.644 6.719-14.644 14.854 0 8.686 7.292 15.956 16.604 15.956 4.455 0 8.541-1.673 11.66-4.424l-2.341-2.679Zm-10.07-8.891c0-.004-.002-.002 0 0ZM137.18 3.91v23.006h13.075v-3.112h-9.07V16.92h7.547v-3.111h-7.547V7.022h8.904V3.91H137.18ZM168.232 23.804h-1.754V10.266h-11.487v1.423c0 4.072-.264 9.335-1.655 12.115h-1.224v6.919h3.641v-3.807h8.838v3.806h3.641v-6.918Zm-5.693 0h-5.561c1.092-2.515 1.39-7.05 1.39-9.93v-.497h4.171v10.427ZM182.663 15.562c0-4.038-2.052-5.561-6.223-5.561-2.615 0-4.668.827-5.859 1.523V14.8c1.059-.795 3.376-1.655 5.395-1.655 1.887 0 2.748.662 2.748 2.449v.927h-.629c-6.025 0-8.706 1.986-8.706 5.362 0 3.377 2.052 5.264 5.098 5.264 2.317 0 3.31-.762 4.071-1.556h.166c.033.43.165.993.298 1.324h3.84a41.72 41.72 0 0 1-.199-4.072v-7.282Zm-3.939 7.382c-.497.728-1.424 1.324-2.814 1.324-1.655 0-2.482-.993-2.482-2.483 0-1.953 1.357-2.648 4.733-2.648h.563v3.807Z" fill="#000"/></svg>