<svg width="232" height="40" viewBox="0 0 232 40" fill="none" xmlns="http://www.w3.org/2000/svg">
<path d="M167.02 20C167.02 36.0044 163.024 40 147.02 40C131.015 40 127.02 36.0044 127.02 20C127.02 3.99563 131.015 0 147.02 0C163.024 0 167.02 3.99563 167.02 20Z" fill="#FFD700"/>
<path d="M157.895 28.4386C155.481 30.5879 152.331 31.8842 148.894 31.8842C141.685 31.8842 136.283 26.2537 136.283 19.8176C136.283 13.7655 141.068 8.82365 147.001 8.82365C152.6 8.82365 156.64 13.2014 156.64 17.9414C156.64 22.3845 153.164 25.9885 148.894 25.9885C144.987 25.9885 142.229 23.004 142.229 19.8176C142.229 16.9578 144.423 14.7194 147.003 14.7194C149.286 14.7194 150.695 16.3977 150.695 17.9414C150.695 19.2813 149.76 20.0907 148.894 20.0907C148.588 20.0907 148.47 20.0254 148.348 19.9482C148.627 19.5861 148.765 19.115 148.695 18.6242C148.556 17.6762 147.686 17.0211 146.751 17.1616C145.949 17.2824 145.44 17.8326 145.188 18.2403C144.903 18.6974 144.751 19.2476 144.751 19.8176C144.751 22.0916 146.853 23.5621 148.894 23.5621C151.876 23.5641 154.118 20.9378 154.118 17.9414C154.118 14.2741 150.967 11.2481 147.003 11.2481C142.399 11.2481 138.806 15.1786 138.806 19.8176C138.806 25.0741 143.25 29.4579 148.896 29.4579C155.137 29.4579 160.065 24.2172 160.065 17.9394C160.065 11.1907 154.399 5.35229 147.003 5.35229C139.134 5.35229 132.861 11.8952 132.861 19.8176C132.861 28.2763 139.903 35.3556 148.896 35.3556C153.197 35.3556 157.143 33.7268 160.155 31.0471L157.895 28.4386Z" fill="#230F0A"/>
<path d="M15.0464 34.6691H20.233V4.87842H12.6889C5.10189 4.87842 1.11552 8.77907 1.11552 14.5229C1.11552 19.1094 3.30159 21.8098 7.20224 24.596L0.429688 34.6691H6.04491L13.589 23.3958L10.9743 21.6383C7.80234 19.4951 6.25923 17.8234 6.25923 14.2228C6.25923 11.0509 8.48817 8.90766 12.7317 8.90766H15.0464V34.6691ZM83.1577 33.2117V29.0539C81.5717 30.1255 78.9142 31.0685 76.428 31.0685C72.6988 31.0685 71.2843 29.3111 71.07 25.7105H83.372V23.01C83.372 15.5088 80.0715 12.6797 74.9707 12.6797C68.7553 12.6797 65.7977 17.4376 65.7977 23.953C65.7977 31.4543 69.484 35.0977 75.9994 35.0977C79.2571 35.0977 81.6575 34.2404 83.1577 33.2117ZM115.049 35.0977C117.406 35.0977 119.078 34.6691 120.321 33.7689V29.6111C119.035 30.5113 117.492 31.0685 115.349 31.0685C111.705 31.0685 110.205 28.2394 110.205 23.7816C110.205 19.1094 112.048 16.709 115.392 16.709C117.363 16.709 119.292 17.3948 120.321 18.0377V13.7085C119.249 13.1084 117.363 12.6797 114.834 12.6797C108.319 12.6797 104.933 17.3519 104.933 23.9102C104.933 31.1114 108.233 35.0977 115.049 35.0977ZM36.4357 13.1084V21.6383H29.6203V13.1084H24.5194V34.6691H29.6203V25.6676H36.4357V34.6691H41.5365V13.1084H36.4357ZM64.5546 30.6398H62.2828V13.1084H47.4089V14.9515C47.4089 20.2238 47.066 27.0392 45.2657 30.6398H43.6797V39.5985H48.3948V34.6691H59.8396V39.5985H64.5546V30.6398ZM99.4462 34.6691H105.233L97.0458 23.0529L104.247 13.1084H99.1032L91.902 23.0529V13.1084H86.8012V34.6691H91.902V24.0816L99.4462 34.6691ZM74.8849 16.709C77.4139 16.709 78.1855 18.8093 78.1855 21.5098V21.9384H71.07C71.1986 18.5093 72.4417 16.709 74.8849 16.709ZM57.182 30.6398H49.9808C51.3953 27.3822 51.7811 21.5098 51.7811 17.7806V17.1376H57.182V30.6398Z" fill="#230F0A"/>
<path d="M173.847 4.93676V34.6961H190.369V30.6712H178.908V21.7648H188.445V17.7397H178.908V8.96179H190.159V4.93676H173.847ZM213.084 30.6712H210.867V13.1581H196.354V14.9993C196.354 20.2661 196.019 27.0743 194.262 30.6712H192.715V39.6203H197.316V34.6961H208.483V39.6203H213.084V30.6712ZM205.89 30.6712H198.863C200.243 27.4169 200.62 21.5507 200.62 17.8254V17.1831H205.89V30.6712ZM231.318 20.0092C231.318 14.7852 228.725 12.8155 223.455 12.8155C220.151 12.8155 217.557 13.886 216.052 14.7852V19.0243C217.39 17.9967 220.318 16.8834 222.869 16.8834C225.253 16.8834 226.341 17.7397 226.341 20.052V21.2509H225.546C217.934 21.2509 214.546 23.8201 214.546 28.1876C214.546 32.5553 217.139 34.996 220.987 34.996C223.915 34.996 225.17 34.0109 226.131 32.9835H226.341C226.382 33.5401 226.55 34.2679 226.717 34.6961H231.569C231.402 32.9406 231.318 31.1851 231.318 29.4293V20.0092ZM226.341 29.5579C225.713 30.4999 224.542 31.2707 222.786 31.2707C220.694 31.2707 219.649 29.9861 219.649 28.0593C219.649 25.5329 221.363 24.6337 225.63 24.6337H226.341V29.5579Z" fill="#230F0A"/>
</svg>
