<svg xmlns="http://www.w3.org/2000/svg" width="1185" height="323" viewBox="0 0 1185 323" fill="none"><path d="M73.2049 175.131H99.1244V26.2695H61.296C23.4676 26.2695 3.50263 45.5339 3.50263 74.6057C3.50263 97.723 14.3608 111.033 33.9755 125.043L0 175.131H28.021L65.8494 118.739L52.8897 109.982C37.1279 99.124 29.4221 90.7178 29.4221 72.8544C29.4221 57.0926 40.6305 46.2345 61.6462 46.2345H73.2049V175.131ZM573.73 177.232C585.639 177.232 594.046 175.131 600 170.577V149.912C593.695 154.465 585.99 157.268 575.131 157.268C556.918 157.268 549.562 143.257 549.562 120.84C549.562 97.3727 558.669 85.4638 575.482 85.4638C585.289 85.4638 595.096 88.9664 600 92.1188V70.4025C594.746 67.2502 585.289 65.1486 572.68 65.1486C540.105 65.1486 523.292 88.6162 523.292 121.191C522.942 157.618 539.405 177.232 573.73 177.232ZM414.011 168.126V147.46C405.954 152.714 392.645 157.618 380.385 157.618C361.821 157.618 354.816 148.861 353.415 130.648H415.061V116.987C415.061 79.5094 398.599 65.1486 373.03 65.1486C341.856 65.1486 327.145 88.9664 327.145 121.541C327.145 159.019 345.709 177.232 378.284 177.232C394.396 177.232 406.305 173.029 414.011 168.126ZM180.035 67.2502V109.982H146.06V67.2502H120.49V175.131H146.06V130.297H180.035V175.481H205.604V67.2502H180.035ZM320.841 155.166H309.632V67.6005H235.026V76.7073C235.026 102.977 233.275 137.303 224.168 155.166H216.112V199.999H239.58V175.481H297.023V199.999H320.49V155.166H320.841ZM495.622 175.131H524.694L483.363 116.987L519.44 67.2502H493.87L457.793 116.987V67.2502H432.224V175.131H457.793V122.241L495.622 175.131ZM372.68 85.4638C385.289 85.4638 389.142 95.9717 389.142 109.632V111.733H353.415C354.116 94.2204 360.42 85.4638 372.68 85.4638ZM284.063 155.166H247.986C254.991 138.704 257.093 109.632 257.093 90.7177V87.5654H284.063V155.166Z" fill="black"/><path d="M816.812 154.115C800.7 168.476 779.334 176.882 756.567 176.882C708.231 176.882 671.803 139.404 671.803 96.6723C671.803 56.3922 704.027 23.4676 743.607 23.4676C781.085 23.4676 808.406 52.5393 808.406 84.0629C808.406 113.485 784.938 137.653 756.567 137.653C730.297 137.653 711.733 117.688 711.733 96.6723C711.733 77.7582 726.444 62.6969 743.607 62.6969C759.019 62.6969 768.476 73.9053 768.476 84.0629C768.476 92.8194 762.171 98.4236 756.216 98.4236C754.115 98.4236 753.414 98.0734 752.714 97.3729C754.465 94.921 755.516 91.7687 755.166 88.6163C754.115 82.3116 748.511 78.1084 742.206 78.809C736.952 79.5095 733.449 83.3624 731.698 85.8142C729.947 88.9666 728.896 92.4692 728.896 96.3221C728.896 111.383 742.907 121.191 756.567 121.191C776.532 121.191 791.593 103.678 791.593 83.7126C791.593 59.1943 770.577 39.2294 743.957 39.2294C713.134 39.2294 688.966 65.499 688.966 96.3221C688.966 131.348 718.738 160.42 756.567 160.42C798.598 160.42 831.523 125.394 831.523 83.7126C831.523 38.8791 793.344 0 743.957 0C691.068 0 649.036 43.4325 649.036 96.3221C649.036 152.714 696.322 199.649 756.567 199.649C785.288 199.649 811.908 188.791 832.224 170.928L816.812 154.115Z" fill="black"/><path d="M888.966 26.2695V175.481H973.729V155.166H914.885V110.332H963.922V90.0172H914.885V46.2345H972.679V26.2695H888.966Z" fill="black"/><path d="M1090.02 155.167H1078.81V67.6011H1004.2V76.7079C1004.2 102.978 1002.45 137.303 993.344 155.167H985.288V200H1008.76V175.482H1066.2V200H1089.67V155.167H1090.02ZM1053.24 155.167H1017.16C1024.17 138.704 1026.27 109.633 1026.27 90.7184V87.566H1053.24V155.167Z" fill="black"/><path d="M1183.54 101.576C1183.54 75.3059 1170.23 65.4985 1143.26 65.4985C1126.44 65.4985 1113.13 70.7525 1105.43 75.3059V96.6719C1112.43 91.4179 1127.15 85.8137 1140.46 85.8137C1152.71 85.8137 1158.32 90.0169 1158.32 101.576V107.53H1154.12C1115.24 107.53 1097.72 120.49 1097.72 142.206C1097.72 163.922 1111.03 176.181 1130.65 176.181C1145.71 176.181 1152.01 171.278 1156.92 166.024H1157.97C1158.32 168.826 1159.02 172.328 1159.72 174.43H1184.59C1183.89 165.673 1183.19 156.917 1183.19 148.16V101.576H1183.54ZM1157.97 149.561C1154.82 154.115 1148.86 157.968 1139.75 157.968C1128.9 157.968 1123.64 151.663 1123.64 141.856C1123.64 129.246 1132.4 124.693 1154.47 124.693H1157.97V149.561Z" fill="black"/><path d="M407.672 256.75H390.809V296H375.523V244.817H422.958V296H407.672V256.75ZM452.914 286.533C455.412 286.533 457.418 285.941 458.93 284.757C460.442 283.508 461.592 282.193 462.381 280.813V273.318H457.45C453.769 273.318 451.073 273.975 449.364 275.29C447.654 276.539 446.8 278.216 446.8 280.32C446.8 282.358 447.358 283.903 448.476 284.955C449.594 286.007 451.073 286.533 452.914 286.533ZM463.861 296C463.729 295.277 463.565 294.356 463.368 293.239C463.236 292.055 463.105 290.905 462.973 289.787C461.658 291.694 459.784 293.37 457.352 294.817C454.985 296.263 451.895 296.986 448.082 296.986C445.978 296.986 443.94 296.69 441.967 296.099C439.995 295.507 438.253 294.619 436.74 293.436C435.228 292.187 434.012 290.642 433.092 288.801C432.171 286.96 431.711 284.79 431.711 282.292C431.711 276.901 433.749 272.66 437.825 269.57C441.967 266.48 448.41 264.935 457.155 264.935H462.381V263.653C462.381 260.497 461.56 258.393 459.916 257.341C458.272 256.289 455.971 255.763 453.013 255.763C450.054 255.763 447.26 256.191 444.63 257.045C442.066 257.834 439.666 258.788 437.431 259.905L434.472 248.17C436.839 247.052 439.831 246.066 443.447 245.211C447.128 244.291 451.073 243.831 455.281 243.831C458.7 243.831 461.79 244.192 464.551 244.915C467.312 245.573 469.679 246.658 471.652 248.17C473.624 249.682 475.136 251.654 476.188 254.087C477.24 256.454 477.766 259.314 477.766 262.667V287.716C477.766 288.308 477.766 288.998 477.766 289.787C477.832 290.51 477.865 291.266 477.865 292.055C477.93 292.844 477.963 293.6 477.963 294.323C478.029 294.981 478.095 295.54 478.16 296H463.861ZM515.027 285.053C518.38 285.053 521.109 283.837 523.212 281.404C525.382 278.972 526.467 275.29 526.467 270.359C526.467 265.428 525.415 261.779 523.311 259.412C521.207 256.98 518.479 255.763 515.126 255.763C511.773 255.763 508.978 256.98 506.743 259.412C504.508 261.779 503.39 265.428 503.39 270.359C503.39 275.356 504.475 279.07 506.644 281.503C508.88 283.87 511.674 285.053 515.027 285.053ZM519.761 296.986C515.947 296.986 512.693 296.197 509.997 294.619C507.368 293.041 505.198 290.872 503.489 288.11V313.456H488.203V244.817H502.601L503.193 252.706C504.902 249.945 507.105 247.775 509.8 246.197C512.562 244.619 515.849 243.831 519.662 243.831C522.752 243.831 525.645 244.389 528.341 245.507C531.102 246.559 533.502 248.203 535.54 250.438C537.644 252.608 539.287 255.369 540.471 258.722C541.654 262.009 542.246 265.888 542.246 270.359C542.246 274.896 541.654 278.84 540.471 282.193C539.287 285.481 537.644 288.242 535.54 290.477C533.502 292.647 531.102 294.291 528.341 295.408C525.645 296.46 522.785 296.986 519.761 296.986ZM576.57 256.75V296H561.284V256.75H546.688V244.817H591.461V256.75H576.57ZM632.868 275.98H614.82V296H599.534V244.817H614.82V264.047H632.868V244.817H648.153V296H632.868V275.98ZM683.407 254.777C677.555 254.777 673.972 258.032 672.657 264.541H692.282C692.348 261.319 691.592 258.886 690.014 257.243C688.502 255.599 686.3 254.777 683.407 254.777ZM705.497 292.45C704.182 293.304 702.605 294.06 700.764 294.718C699.186 295.31 697.213 295.836 694.847 296.296C692.48 296.756 689.653 296.986 686.365 296.986C676.24 296.986 668.745 294.652 663.88 289.984C659.015 285.316 656.582 278.775 656.582 270.359C656.582 266.217 657.207 262.502 658.456 259.215C659.771 255.928 661.579 253.166 663.88 250.931C666.181 248.63 668.975 246.888 672.263 245.704C675.55 244.455 679.166 243.831 683.111 243.831C687.121 243.831 690.77 244.488 694.058 245.803C697.345 247.052 700.073 248.959 702.243 251.523C704.413 254.087 705.925 257.308 706.779 261.187C707.634 265.001 707.667 269.504 706.878 274.698H672.46C672.986 278.183 674.367 280.813 676.602 282.588C678.837 284.297 682.322 285.152 687.056 285.152C689.488 285.152 691.658 284.988 693.564 284.659C695.537 284.264 697.181 283.804 698.495 283.278C700.073 282.686 701.421 282.029 702.539 281.306L705.497 292.45ZM694.058 239.294C691.559 239.294 689.455 238.472 687.746 236.829C686.102 235.185 685.28 233.245 685.28 231.01C685.28 228.643 686.102 226.671 687.746 225.093C689.455 223.449 691.559 222.627 694.058 222.627C695.175 222.627 696.26 222.858 697.312 223.318C698.364 223.712 699.284 224.304 700.073 225.093C700.862 225.816 701.487 226.704 701.947 227.756C702.473 228.742 702.736 229.827 702.736 231.01C702.736 232.128 702.473 233.18 701.947 234.166C701.487 235.152 700.862 236.04 700.073 236.829C699.284 237.552 698.364 238.143 697.312 238.604C696.26 239.064 695.175 239.294 694.058 239.294ZM671.572 239.294C670.389 239.294 669.271 239.064 668.219 238.604C667.233 238.143 666.346 237.552 665.557 236.829C664.833 236.04 664.242 235.152 663.782 234.166C663.321 233.18 663.091 232.128 663.091 231.01C663.091 228.643 663.913 226.671 665.557 225.093C667.266 223.449 669.271 222.627 671.572 222.627C674.005 222.627 676.076 223.449 677.785 225.093C679.561 226.671 680.448 228.643 680.448 231.01C680.448 233.245 679.561 235.185 677.785 236.829C676.076 238.472 674.005 239.294 671.572 239.294ZM743.18 285.053C746.533 285.053 749.261 283.837 751.365 281.404C753.535 278.972 754.62 275.29 754.62 270.359C754.62 265.428 753.568 261.779 751.464 259.412C749.36 256.98 746.632 255.763 743.278 255.763C739.925 255.763 737.131 256.98 734.896 259.412C732.661 261.779 731.543 265.428 731.543 270.359C731.543 275.356 732.628 279.07 734.797 281.503C737.033 283.87 739.827 285.053 743.18 285.053ZM747.914 296.986C744.1 296.986 740.846 296.197 738.15 294.619C735.52 293.041 733.351 290.872 731.641 288.11V313.456H716.355V244.817H730.754L731.346 252.706C733.055 249.945 735.257 247.775 737.953 246.197C740.714 244.619 744.002 243.831 747.815 243.831C750.905 243.831 753.798 244.389 756.493 245.507C759.255 246.559 761.655 248.203 763.693 250.438C765.797 252.608 767.44 255.369 768.624 258.722C769.807 262.009 770.399 265.888 770.399 270.359C770.399 274.896 769.807 278.84 768.624 282.193C767.44 285.481 765.797 288.242 763.693 290.477C761.655 292.647 759.255 294.291 756.493 295.408C753.798 296.46 750.938 296.986 747.914 296.986ZM824.353 296.986C819.948 296.986 815.971 296.394 812.42 295.211C808.87 293.962 805.813 292.22 803.249 289.984C800.751 287.683 798.811 284.889 797.43 281.602C796.115 278.314 795.458 274.567 795.458 270.359C795.458 266.217 796.115 262.502 797.43 259.215C798.811 255.928 800.718 253.166 803.15 250.931C805.649 248.63 808.574 246.888 811.927 245.704C815.346 244.455 819.127 243.831 823.269 243.831C827.213 243.831 830.533 244.258 833.229 245.113C835.99 245.967 838.127 246.921 839.639 247.973L836.779 259.116C835.07 257.999 833.229 257.177 831.257 256.651C829.284 256.059 826.786 255.763 823.762 255.763C819.948 255.763 816.891 256.98 814.59 259.412C812.355 261.779 811.237 265.428 811.237 270.359C811.237 275.29 812.42 278.972 814.787 281.404C817.154 283.837 820.573 285.053 825.044 285.053C827.871 285.053 830.205 284.725 832.046 284.067C833.887 283.41 835.596 282.621 837.174 281.7L839.935 293.041C838.423 294.093 836.385 295.014 833.821 295.803C831.322 296.592 828.167 296.986 824.353 296.986ZM873.037 254.777C867.185 254.777 863.602 258.032 862.287 264.541H881.912C881.978 261.319 881.222 258.886 879.644 257.243C878.132 255.599 875.929 254.777 873.037 254.777ZM895.127 292.45C893.812 293.304 892.234 294.06 890.393 294.718C888.816 295.31 886.843 295.836 884.476 296.296C882.109 296.756 879.282 296.986 875.995 296.986C865.87 296.986 858.375 294.652 853.51 289.984C848.645 285.316 846.212 278.775 846.212 270.359C846.212 266.217 846.837 262.502 848.086 259.215C849.401 255.928 851.209 253.166 853.51 250.931C855.811 248.63 858.605 246.888 861.893 245.704C865.18 244.455 868.796 243.831 872.741 243.831C876.751 243.831 880.4 244.488 883.687 245.803C886.975 247.052 889.703 248.959 891.873 251.523C894.042 254.087 895.555 257.308 896.409 261.187C897.264 265.001 897.297 269.504 896.508 274.698H862.09C862.616 278.183 863.996 280.813 866.232 282.588C868.467 284.297 871.952 285.152 876.685 285.152C879.118 285.152 881.288 284.988 883.194 284.659C885.167 284.264 886.81 283.804 888.125 283.278C889.703 282.686 891.051 282.029 892.169 281.306L895.127 292.45ZM932.81 285.053C936.163 285.053 938.891 283.837 940.995 281.404C943.165 278.972 944.25 275.29 944.25 270.359C944.25 265.428 943.198 261.779 941.094 259.412C938.99 256.98 936.261 255.763 932.908 255.763C929.555 255.763 926.761 256.98 924.526 259.412C922.29 261.779 921.173 265.428 921.173 270.359C921.173 275.356 922.257 279.07 924.427 281.503C926.662 283.87 929.457 285.053 932.81 285.053ZM937.543 296.986C933.73 296.986 930.476 296.197 927.78 294.619C925.15 293.041 922.981 290.872 921.271 288.11V313.456H905.985V244.817H920.384L920.975 252.706C922.685 249.945 924.887 247.775 927.583 246.197C930.344 244.619 933.632 243.831 937.445 243.831C940.535 243.831 943.428 244.389 946.123 245.507C948.885 246.559 951.284 248.203 953.322 250.438C955.426 252.608 957.07 255.369 958.253 258.722C959.437 262.009 960.029 265.888 960.029 270.359C960.029 274.896 959.437 278.84 958.253 282.193C957.07 285.481 955.426 288.242 953.322 290.477C951.284 292.647 948.885 294.291 946.123 295.408C943.428 296.46 940.568 296.986 937.543 296.986ZM983.481 255.172V265.132H989.399C991.502 265.132 993.179 264.738 994.428 263.949C995.743 263.16 996.4 261.911 996.4 260.201C996.4 258.36 995.842 257.078 994.724 256.355C993.672 255.566 992.094 255.172 989.99 255.172H983.481ZM983.481 274.896V285.645H989.793C992.226 285.645 994.198 285.283 995.71 284.56C997.222 283.771 997.978 282.358 997.978 280.32C997.978 278.479 997.288 277.131 995.907 276.276C994.527 275.356 992.258 274.896 989.103 274.896H983.481ZM968.393 244.817H991.272C998.439 244.817 1003.63 245.836 1006.85 247.874C1010.08 249.912 1011.69 252.969 1011.69 257.045C1011.69 260.333 1010.63 262.897 1008.53 264.738C1006.49 266.579 1003.4 268.025 999.26 269.077C1004.19 269.8 1007.77 271.115 1010.01 273.022C1012.31 274.863 1013.46 277.69 1013.46 281.503C1013.46 286.237 1011.49 289.853 1007.54 292.351C1003.67 294.784 998.176 296 991.075 296H968.393V244.817ZM1022.42 244.817H1037.51V276.178L1059.11 244.817H1073.8V296H1058.81V264.639L1037.31 296H1022.42V244.817ZM1111.06 296.986C1106.66 296.986 1102.68 296.394 1099.13 295.211C1095.58 293.962 1092.52 292.22 1089.96 289.984C1087.46 287.683 1085.52 284.889 1084.14 281.602C1082.82 278.314 1082.17 274.567 1082.17 270.359C1082.17 266.217 1082.82 262.502 1084.14 259.215C1085.52 255.928 1087.43 253.166 1089.86 250.931C1092.36 248.63 1095.28 246.888 1098.64 245.704C1102.05 244.455 1105.83 243.831 1109.98 243.831C1113.92 243.831 1117.24 244.258 1119.94 245.113C1122.7 245.967 1124.84 246.921 1126.35 247.973L1123.49 259.116C1121.78 257.999 1119.94 257.177 1117.96 256.651C1115.99 256.059 1113.49 255.763 1110.47 255.763C1106.66 255.763 1103.6 256.98 1101.3 259.412C1099.06 261.779 1097.94 265.428 1097.94 270.359C1097.94 275.29 1099.13 278.972 1101.5 281.404C1103.86 283.837 1107.28 285.053 1111.75 285.053C1114.58 285.053 1116.91 284.725 1118.75 284.067C1120.59 283.41 1122.3 282.621 1123.88 281.7L1126.64 293.041C1125.13 294.093 1123.09 295.014 1120.53 295.803C1118.03 296.592 1114.87 296.986 1111.06 296.986ZM1154.42 286.533C1156.92 286.533 1158.92 285.941 1160.43 284.757C1161.95 283.508 1163.1 282.193 1163.89 280.813V273.318H1158.96C1155.27 273.318 1152.58 273.975 1150.87 275.29C1149.16 276.539 1148.3 278.216 1148.3 280.32C1148.3 282.358 1148.86 283.903 1149.98 284.955C1151.1 286.007 1152.58 286.533 1154.42 286.533ZM1165.37 296C1165.23 295.277 1165.07 294.356 1164.87 293.239C1164.74 292.055 1164.61 290.905 1164.48 289.787C1163.16 291.694 1161.29 293.37 1158.86 294.817C1156.49 296.263 1153.4 296.986 1149.59 296.986C1147.48 296.986 1145.44 296.69 1143.47 296.099C1141.5 295.507 1139.76 294.619 1138.25 293.436C1136.73 292.187 1135.52 290.642 1134.6 288.801C1133.68 286.96 1133.22 284.79 1133.22 282.292C1133.22 276.901 1135.25 272.66 1139.33 269.57C1143.47 266.48 1149.92 264.935 1158.66 264.935H1163.89V263.653C1163.89 260.497 1163.06 258.393 1161.42 257.341C1159.78 256.289 1157.48 255.763 1154.52 255.763C1151.56 255.763 1148.76 256.191 1146.14 257.045C1143.57 257.834 1141.17 258.788 1138.94 259.905L1135.98 248.17C1138.34 247.052 1141.34 246.066 1144.95 245.211C1148.63 244.291 1152.58 243.831 1156.79 243.831C1160.2 243.831 1163.29 244.192 1166.06 244.915C1168.82 245.573 1171.18 246.658 1173.16 248.17C1175.13 249.682 1176.64 251.654 1177.69 254.087C1178.75 256.454 1179.27 259.314 1179.27 262.667V287.716C1179.27 288.308 1179.27 288.998 1179.27 289.787C1179.34 290.51 1179.37 291.266 1179.37 292.055C1179.44 292.844 1179.47 293.6 1179.47 294.323C1179.53 294.981 1179.6 295.54 1179.67 296H1165.37Z" fill="black"/></svg>