<svg width="40" height="40" viewBox="0 0 40 40" fill="none" xmlns="http://www.w3.org/2000/svg">
<path d="M27.7168 28.8862C28.0102 29.1796 28.4868 29.1794 28.7803 28.8862C29.0738 28.5927 29.0738 28.1162 28.7803 27.8228L20.5781 19.6216L28.7803 11.4194C29.0738 11.1259 29.0738 10.6494 28.7803 10.356C28.4868 10.0626 28.0102 10.0625 27.7168 10.356L19.5146 18.5581L11.4043 10.4468C11.1108 10.1535 10.6352 10.1535 10.3418 10.4468C10.0483 10.7403 10.0483 11.2168 10.3418 11.5103L18.4521 19.6216L10.3418 27.7319C10.0483 28.0254 10.0483 28.5019 10.3418 28.7954C10.6352 29.0885 11.1109 29.0885 11.4043 28.7954L19.5146 20.6851L27.7168 28.8862Z" fill="#230F0A"/>
</svg>
