<svg width="140" height="24" viewBox="0 0 140 24" fill="none" xmlns="http://www.w3.org/2000/svg">
<g clip-path="url(#clip0_1589_4086)">
<path d="M85.6707 22.9059C91.9965 22.9059 97.1236 17.7782 97.1236 11.4529C97.1236 5.12765 91.9965 0 85.6707 0C79.3455 0 74.2178 5.12765 74.2178 11.4529C74.2178 17.7782 79.3455 22.9059 85.6707 22.9059Z" fill="black"/>
<path d="M90.8148 11.453C90.8148 7.99555 93.3045 5.69056 93.3045 5.69056L91.4322 3.81775C91.4322 3.81775 89.0651 6.30796 85.6697 6.30796C82.2735 6.30796 79.9071 3.81775 79.9071 3.81775L78.0342 5.69056C78.0342 5.69056 80.5245 7.99555 80.5245 11.453C80.5245 14.9105 78.0342 17.2155 78.0342 17.2155L79.9071 19.0883C79.9071 19.0883 82.2529 16.5981 85.6697 16.5981C89.0858 16.5981 91.4322 19.0883 91.4322 19.0883L93.3045 17.2155C93.3045 17.2155 90.8148 14.9105 90.8148 11.453Z" fill="#FFC806"/>
<path d="M8.34529 19.6236H11.3065V2.61481H6.99929C2.66756 2.61481 0.391568 4.84185 0.391568 8.12126C0.391568 10.7398 1.63969 12.2816 3.86674 13.8724L0 19.6236H3.20597L7.51323 13.1871L6.02036 12.1838C4.20936 10.9601 3.32833 10.0056 3.32833 7.9499C3.32833 6.13892 4.60093 4.91527 7.02374 4.91527H8.34529V19.6236ZM47.233 18.7915V16.4176C46.3274 17.0294 44.8101 17.5678 43.3906 17.5678C41.2615 17.5678 40.4539 16.5644 40.3315 14.5087H47.3553V12.9669C47.3553 8.6841 45.4709 7.06887 42.5586 7.06887C39.01 7.06887 37.3214 9.78539 37.3214 13.5053C37.3214 17.7881 39.4261 19.8683 43.1459 19.8683C45.0059 19.8683 46.3764 19.3788 47.233 18.7915ZM65.4406 19.8683C66.7871 19.8683 67.7413 19.6236 68.451 19.1096V16.7357C67.7168 17.2496 66.8361 17.5678 65.6123 17.5678C63.532 17.5678 62.6754 15.9526 62.6754 13.4074C62.6754 10.7398 63.7277 9.36939 65.6368 9.36939C66.7626 9.36939 67.8639 9.76094 68.451 10.128V7.65623C67.8394 7.31365 66.7626 7.06887 65.3187 7.06887C61.5986 7.06887 59.6652 9.73649 59.6652 13.4808C59.6652 17.5923 61.5497 19.8683 65.4406 19.8683ZM20.5574 7.31365V12.1838H16.6661V7.31365H13.7539V19.6236H16.6661V14.4842H20.5574V19.6236H23.4696V7.31365H20.5574ZM36.6116 17.3231H35.3146V7.31365H26.8225V8.36597C26.8225 11.3762 26.6266 15.2674 25.5988 17.3231H24.6933V22.438H27.3853V19.6236H33.9196V22.438H36.6116V17.3231ZM56.5327 19.6236H59.8365L55.1622 12.9914L59.2737 7.31365H56.3369L52.2254 12.9914V7.31365H49.3132V19.6236H52.2254V13.5787L56.5327 19.6236ZM42.5096 9.36939C43.9535 9.36939 44.3941 10.5685 44.3941 12.1104V12.3551H40.3315C40.405 10.3973 41.1147 9.36939 42.5096 9.36939ZM32.4023 17.3231H28.2908C29.0984 15.4631 29.3187 12.1104 29.3187 9.98119V9.6141H32.4023V17.3231Z" fill="black"/>
<path d="M103.241 2.61481V19.6236H106.202V4.91527H111.489V19.6236H114.45V2.61481H103.241Z" fill="black"/>
<path d="M119.579 7.31362H116.887V23.1721H119.799V18.1796C120.533 19.2809 121.61 19.8683 122.858 19.8683C125.697 19.8683 127.655 17.5923 127.655 13.4563C127.655 9.34485 125.746 7.06885 123.005 7.06885C121.634 7.06885 120.509 7.70517 119.726 8.90433L119.579 7.31362ZM122.124 17.5678C120.582 17.5678 119.799 16.3197 119.799 13.4808C119.799 10.6174 120.631 9.36936 122.271 9.36936C123.862 9.36936 124.645 10.6174 124.645 13.4563C124.645 16.3197 123.813 17.5678 122.124 17.5678Z" fill="black"/>
<path d="M134.546 7.06885C131.34 7.06885 129.113 9.34485 129.113 13.4808C129.113 17.5923 131.34 19.8683 134.546 19.8683C137.752 19.8683 139.979 17.5923 139.979 13.4563C139.979 9.34485 137.752 7.06885 134.546 7.06885ZM134.546 17.5678C132.931 17.5678 132.124 16.3197 132.124 13.4808C132.124 10.6174 132.931 9.36936 134.546 9.36936C136.162 9.36936 136.969 10.6174 136.969 13.4563C136.969 16.3197 136.162 17.5678 134.546 17.5678Z" fill="black"/>
</g>
<defs>
<clipPath id="clip0_1589_4086">
<rect width="140" height="23.2258" fill="white"/>
</clipPath>
</defs>
</svg>
