<svg width="24" height="24" viewBox="0 0 24 24" fill="none" xmlns="http://www.w3.org/2000/svg">
<path d="M4 12.9998L4.00003 13.9256L4 13.942V19.9995L8 19.9998L9 17.9998H15L16 19.9995H20V12.9998C19.9985 14.103 19.1047 14.9998 18.0011 14.9998H5.9989C4.89438 14.9998 4.00008 14.1043 4 12.9998Z" fill="#21201F"/>
<path fill-rule="evenodd" clip-rule="evenodd" d="M12 4.99976C10.4399 4.99976 8.92948 5.14808 7.46872 5.44473C6.18572 5.70528 5.17482 6.68939 4.88462 7.96034L4.42426 9.97657L4.42031 9.99976H2.5C2.22386 9.99976 2 10.2236 2 10.4998V11.9998L4 12.9998C4 12.9998 4 13.9998 12 13.9998C19.9504 13.9998 19.9997 13.012 20 12.9998L22 11.9998V10.4998C22 10.2236 21.7761 9.99976 21.5 9.99976H19.5797L19.5758 9.97657L19.1154 7.96033C18.8252 6.6894 17.8143 5.7053 16.5313 5.44474C15.0706 5.14808 13.5601 4.99976 12 4.99976ZM17.9079 10.3081L18.1395 11.6665C16.7816 11.3756 14.5361 10.9998 12 10.9998C9.4639 10.9998 7.21849 11.3756 5.86056 11.6665L6.09213 10.3081L6.54197 8.33797C6.68271 7.72161 7.17482 7.23834 7.80705 7.10994C9.1514 6.83693 10.5483 6.69897 12 6.69897C13.4518 6.69897 14.8486 6.83693 16.193 7.10994C16.8252 7.23835 17.3173 7.72162 17.4581 8.33797L17.9079 10.3081Z" fill="#21201F"/>
</svg>
