<svg xmlns="http://www.w3.org/2000/svg" fill="none" viewBox="0 0 24 24" style="color: #FF7700">
        <path fill="currentColor"
          d="M13.525 8.603c0-.827-.675-1.502-1.502-1.502-.848 0-1.523.675-1.5 1.502a1.504 1.504 0 0 0 1.5 1.501c.827 0 1.502-.674 1.502-1.5">
        </path>
        <path fill="currentColor" fill-rule="evenodd"
          d="M24 11.917v.166C24 21.417 21.165 24 12.076 24h-.152C2.835 24 .001 21.417.001 12.083v-.166C0 2.583 2.835 0 11.924 0h.152C21.166 0 24 2.583 24 11.917M12.023 4.97C10 4.97 8.368 6.6 8.368 8.603s1.632 3.634 3.655 3.634a3.64 3.64 0 0 0 3.634-3.634 3.64 3.64 0 0 0-3.634-3.634m1.46 10.248a6.9 6.9 0 0 0 2.11-.87c.504-.314.652-.981.326-1.479a1.06 1.06 0 0 0-1.48-.327 4.62 4.62 0 0 1-4.896 0 1.085 1.085 0 0 0-1.48.327 1.085 1.085 0 0 0 .37 1.458c.65.406 1.364.7 2.111.87L8.52 17.22a1.064 1.064 0 0 0 0 1.501c.217.218.48.305.761.305.284-.002.556-.111.762-.305l2.002-2.002 2.002 2.002a1.064 1.064 0 0 0 1.501 0 1.064 1.064 0 0 0 0-1.5z"
          clip-rule="evenodd"></path>
      </svg>