<svg xmlns="http://www.w3.org/2000/svg" fill="none" viewBox="0 0 24 24" ><path fill="#4d7198" fill-rule="evenodd" d="M12.507 24h-1c-5.425 0-8.137 0-9.822-1.685S0 17.918 0 12.507v-1.014C0 6.081 0 3.37 1.685 1.685S6.082 0 11.508 0h.999c5.425 0 8.152 0 9.823 1.685C24 3.37 24 6.083 24 11.493v1.15c0 5.321 0 8.002-1.67 9.672C20.645 24 17.932 24 12.507 24M4.055 7.31c.128 6.24 3.412 9.994 8.824 9.994h.314v-3.57c1.97.2 3.44 1.67 4.04 3.57h2.84c-.77-2.841-2.769-4.411-4.011-5.011 1.242-.743 2.998-2.542 3.412-4.983H16.89c-.543 1.984-2.156 3.783-3.697 3.954V7.31h-2.628v6.925c-1.598-.397-3.684-2.342-3.769-6.925z" clip-rule="evenodd"></path></svg>