<svg width="70" height="70" viewBox="0 0 70 70" fill="none" xmlns="http://www.w3.org/2000/svg">
<rect x="5" y="5" width="60" height="60" rx="30" fill="#00AFCA"/>
<g clip-path="url(#clip0_16332_64)">
<path d="M46.062 31.2401C47.1707 25.2336 43.1287 19.4786 37.0341 18.3859C30.9394 17.2933 25.0999 21.2767 23.9912 27.2832C22.8825 33.2898 26.9245 39.0448 33.0191 40.1374C39.1138 41.2301 44.9533 37.2466 46.062 31.2401Z" fill="#FFD700"/>
<path d="M35.0265 16.6985C35.6929 16.6893 35.942 16.2781 35.942 15.787C35.942 15.1303 35.0265 12 35.0265 12C35.0265 12 34.111 15.1303 34.111 15.787C34.111 16.2811 34.3601 16.6985 35.0265 16.6985Z" fill="#FFD700"/>
<path d="M47.775 29.2627C47.7844 29.9194 48.2016 30.1649 48.6999 30.1649C49.3663 30.1649 52.5425 29.2627 52.5425 29.2627C52.5425 29.2627 49.3663 28.3604 48.6999 28.3604C48.1985 28.3604 47.775 28.6059 47.775 29.2627Z" fill="#FFD700"/>
<path d="M35.0265 41.8237C34.3601 41.8329 34.111 42.2442 34.111 42.7352C34.111 43.3919 35.0265 46.5222 35.0265 46.5222C35.0265 46.5222 35.942 43.3919 35.942 42.7352C35.942 42.2411 35.6929 41.8237 35.0265 41.8237Z" fill="#FFD700"/>
<path d="M22.281 29.2627C22.2717 28.6059 21.8544 28.3604 21.3562 28.3604C20.6898 28.3604 17.5135 29.2627 17.5135 29.2627C17.5135 29.2627 20.6898 30.1649 21.3562 30.1649C21.8575 30.1649 22.281 29.9194 22.281 29.2627Z" fill="#FFD700"/>
<path d="M39.906 17.656C40.5257 17.8984 40.9149 17.6161 41.108 17.1588C41.3634 16.5512 41.7308 13.3135 41.7308 13.3135C41.7308 13.3135 39.6694 15.8607 39.414 16.4683C39.2241 16.9225 39.2895 17.4043 39.906 17.656Z" fill="#FFD700"/>
<path d="M46.8034 34.0686C46.5574 34.6793 46.8439 35.0629 47.3079 35.2532C47.9244 35.5048 51.2097 35.8669 51.2097 35.8669C51.2097 35.8669 48.6251 33.8353 48.0085 33.5837C47.5476 33.3965 47.0588 33.4609 46.8034 34.0686Z" fill="#FFD700"/>
<path d="M30.15 40.8662C29.5303 40.6237 29.1411 40.9061 28.948 41.3634C28.6926 41.971 28.3252 45.2087 28.3252 45.2087C28.3252 45.2087 30.3866 42.6615 30.642 42.0539C30.8319 41.5997 30.7665 41.1178 30.15 40.8662Z" fill="#FFD700"/>
<path d="M23.2495 24.4537C23.4955 23.8429 23.209 23.4593 22.745 23.2691C22.1284 23.0174 18.8432 22.6553 18.8432 22.6553C18.8432 22.6553 21.4278 24.6869 22.0443 24.9385C22.5052 25.1258 22.9941 25.0613 23.2495 24.4537Z" fill="#FFD700"/>
<path d="M44.0414 20.3781C44.5178 20.8385 44.9911 20.7219 45.343 20.372C45.8132 19.9086 47.4107 17.0545 47.4107 17.0545C47.4107 17.0545 44.5178 18.6289 44.0445 19.0923C43.6895 19.4421 43.5681 19.9117 44.0383 20.3751L44.0414 20.3781Z" fill="#FFD700"/>
<path d="M44.0414 38.1441C43.5743 38.6137 43.6926 39.0801 44.0476 39.4269C44.5178 39.8903 47.4138 41.4647 47.4138 41.4647C47.4138 41.4647 45.8163 38.6137 45.3461 38.1472C44.9911 37.7973 44.5147 37.6776 44.0445 38.1411L44.0414 38.1441Z" fill="#FFD700"/>
<path d="M26.0147 38.1441C25.5383 37.6838 25.0649 37.8004 24.7131 38.1502C24.2428 38.6136 22.6454 41.4677 22.6454 41.4677C22.6454 41.4677 25.5383 39.8934 26.0116 39.43C26.3666 39.0801 26.488 38.6106 26.0178 38.1472L26.0147 38.1441Z" fill="#FFD700"/>
<path d="M26.0147 20.3781C26.4818 19.9086 26.3635 19.4421 26.0085 19.0953C25.5383 18.6319 22.6423 17.0576 22.6423 17.0576C22.6423 17.0576 24.2397 19.9086 24.7099 20.3751C25.0649 20.7249 25.5414 20.8446 26.0116 20.3812L26.0147 20.3781Z" fill="#FFD700"/>
<path d="M46.8034 24.4537C47.065 25.0582 47.5477 25.1288 48.0085 24.9385C48.6251 24.6869 51.2097 22.6553 51.2097 22.6553C51.2097 22.6553 47.9245 23.0174 47.3079 23.2691C46.847 23.4563 46.5481 23.846 46.8034 24.4537Z" fill="#FFD700"/>
<path d="M39.906 40.8662C39.2926 41.124 39.221 41.5997 39.414 42.0539C39.6694 42.6615 41.7308 45.2087 41.7308 45.2087C41.7308 45.2087 41.3634 41.971 41.108 41.3634C40.9181 40.9092 40.5226 40.6146 39.906 40.8662Z" fill="#FFD700"/>
<path d="M23.2495 34.0686C22.9879 33.464 22.5052 33.3934 22.0444 33.5837C21.4278 33.8353 18.8432 35.8669 18.8432 35.8669C18.8432 35.8669 22.1284 35.5048 22.745 35.2532C23.2059 35.066 23.5048 34.6762 23.2495 34.0686Z" fill="#FFD700"/>
<path d="M30.15 17.656C30.7635 17.3982 30.8351 16.9225 30.642 16.4683C30.3867 15.8607 28.3253 13.3135 28.3253 13.3135C28.3253 13.3135 28.6927 16.5512 28.948 17.1588C29.138 17.613 29.5335 17.9076 30.15 17.656Z" fill="#FFD700"/>
<path d="M37.5145 16.9409C38.1715 17.0606 38.4954 16.7077 38.595 16.2228C38.7258 15.5783 38.4456 12.3314 38.4456 12.3314C38.4456 12.3314 36.9259 15.2254 36.7952 15.8699C36.6986 16.3548 36.8605 16.812 37.5145 16.9409Z" fill="#FFD700"/>
<path d="M47.529 31.7117C47.4076 32.3592 47.7657 32.6784 48.2577 32.7766C48.9116 32.9055 52.2062 32.6293 52.2062 32.6293C52.2062 32.6293 49.2697 31.1316 48.6158 31.0027C48.1238 30.9076 47.6598 31.0672 47.529 31.7117Z" fill="#FFD700"/>
<path d="M32.5415 41.5813C31.8845 41.4616 31.5606 41.8145 31.461 42.2994C31.3302 42.9439 31.6105 46.1908 31.6105 46.1908C31.6105 46.1908 33.1301 43.2968 33.2609 42.6523C33.3574 42.1674 33.1955 41.7102 32.5415 41.5813Z" fill="#FFD700"/>
<path d="M22.527 26.8105C22.6485 26.163 22.2904 25.8438 21.7984 25.7456C21.1444 25.6167 17.8499 25.8929 17.8499 25.8929C17.8499 25.8929 20.7863 27.3906 21.4402 27.5195C21.9323 27.6146 22.3962 27.455 22.527 26.8105Z" fill="#FFD700"/>
<path d="M42.1076 18.8161C42.6681 19.1752 43.1072 18.9695 43.3843 18.5614C43.7549 18.0151 44.7576 14.9094 44.7576 14.9094C44.7576 14.9094 42.2291 17.0085 41.8585 17.5578C41.5813 17.9691 41.5533 18.454 42.1076 18.8192V18.8161Z" fill="#FFD700"/>
<path d="M45.6264 36.2413C45.2621 36.7938 45.4707 37.2265 45.8848 37.4996C46.4391 37.8648 49.5905 38.853 49.5905 38.853C49.5905 38.853 47.4605 36.361 46.9031 35.9958C46.4858 35.7227 45.9938 35.6951 45.6233 36.2413H45.6264Z" fill="#FFD700"/>
<path d="M27.9453 39.7062C27.3848 39.3471 26.9457 39.5527 26.6686 39.9609C26.298 40.5072 25.2953 43.6129 25.2953 43.6129C25.2953 43.6129 27.8239 41.5138 28.1944 40.9644C28.4716 40.5532 28.4996 40.0683 27.9453 39.7031V39.7062Z" fill="#FFD700"/>
<path d="M24.4296 22.284C24.794 21.7315 24.5853 21.2988 24.1712 21.0257C23.6169 20.6605 20.4656 19.6723 20.4656 19.6723C20.4656 19.6723 22.5955 22.1643 23.1529 22.5295C23.5702 22.8026 24.0622 22.8302 24.4328 22.284H24.4296Z" fill="#FFD700"/>
<path d="M45.6264 22.2839C46.0032 22.8271 46.4889 22.8026 46.9062 22.5295C47.4605 22.1643 49.5936 19.6723 49.5936 19.6723C49.5936 19.6723 46.4422 20.6605 45.888 21.0257C45.4707 21.2988 45.2589 21.7377 45.6295 22.2839H45.6264Z" fill="#FFD700"/>
<path d="M42.1076 39.7062C41.5564 40.0775 41.5813 40.5563 41.8585 40.9675C42.229 41.5138 44.7576 43.616 44.7576 43.616C44.7576 43.616 43.7549 40.5102 43.3843 39.964C43.1072 39.5527 42.6619 39.344 42.1076 39.7092V39.7062Z" fill="#FFD700"/>
<path d="M24.4296 36.2414C24.0529 35.6982 23.5671 35.7227 23.1498 35.9958C22.5955 36.361 20.4625 38.853 20.4625 38.853C20.4625 38.853 23.6138 37.8648 24.1681 37.4996C24.5853 37.2265 24.7971 36.7876 24.4265 36.2414H24.4296Z" fill="#FFD700"/>
<path d="M27.9453 18.8161C28.4965 18.4447 28.4716 17.966 28.1944 17.5547C27.8239 17.0085 25.2953 14.9062 25.2953 14.9062C25.2953 14.9062 26.298 18.012 26.6686 18.5583C26.9457 18.9695 27.391 19.1782 27.9453 18.813V18.8161Z" fill="#FFD700"/>
<path d="M47.529 26.8105C47.666 27.455 48.1237 27.6146 48.6158 27.5195C49.2697 27.3906 52.2061 25.8929 52.2061 25.8929C52.2061 25.8929 48.9116 25.6167 48.2576 25.7456C47.7656 25.8408 47.3982 26.1661 47.529 26.8105Z" fill="#FFD700"/>
<path d="M37.5145 41.5813C36.8605 41.7163 36.6986 42.1674 36.7952 42.6523C36.9259 43.2968 38.4456 46.1908 38.4456 46.1908C38.4456 46.1908 38.7258 42.9439 38.595 42.2994C38.4985 41.8145 38.1684 41.4524 37.5145 41.5813Z" fill="#FFD700"/>
<path d="M22.527 31.7117C22.39 31.0672 21.9323 30.9076 21.4402 31.0027C20.7863 31.1316 17.8499 32.6293 17.8499 32.6293C17.8499 32.6293 21.1444 32.9055 21.7984 32.7766C22.2904 32.6814 22.6578 32.3561 22.527 31.7117Z" fill="#FFD700"/>
<path d="M32.5415 16.9409C33.1955 16.8059 33.3574 16.3548 33.2609 15.8699C33.1301 15.2254 31.6105 12.3314 31.6105 12.3314C31.6105 12.3314 31.3302 15.5783 31.461 16.2228C31.5575 16.7077 31.8876 17.0698 32.5415 16.9409Z" fill="#FFD700"/>
<path d="M33.0273 53.2094C32.7284 53.2248 32.4356 53.2647 32.1492 53.3537C31.7568 53.4058 31.3831 53.5409 30.9939 53.6022L30.8382 53.6268L30.5766 53.6514C30.5922 53.7219 30.6046 53.7925 30.6046 53.8662C30.6046 53.9398 30.5953 54.0104 30.5766 54.0718C30.561 54.1301 30.5081 54.2007 30.4645 54.2437C30.4085 54.305 30.3493 54.3572 30.2808 54.3879C30.2154 54.4216 30.1375 54.4339 30.0628 54.4401C29.9881 54.4401 29.9102 54.4401 29.8386 54.4124C29.7639 54.3879 29.6954 54.3419 29.63 54.2866C29.5521 54.305 29.4711 54.3204 29.3964 54.3265C29.3186 54.3357 29.2469 54.3357 29.1784 54.3265C29.1006 54.305 29.0196 54.2805 28.9449 54.2498C28.8702 54.2191 28.7985 54.1823 28.7269 54.1362C28.4435 54.302 28.1259 54.4554 27.9547 54.7439C27.8581 54.8758 27.8394 55.0262 27.8145 55.1827C27.8021 55.373 27.8519 55.5756 27.9329 55.7566C27.964 55.8088 27.9889 55.5664 28.0823 55.5357C28.2411 55.4068 28.4373 55.3147 28.6366 55.2625C28.8048 55.1766 28.783 55.2687 28.7145 55.4006C28.6989 55.4681 28.6024 55.729 28.73 55.597C29.2937 55.3515 29.9196 55.3024 30.5268 55.2533C31.4111 55.1643 32.2955 55.1428 33.183 55.1336C34.0175 55.1459 34.849 55.1551 35.6835 55.1858C36.0821 55.1981 36.4807 55.284 36.873 55.2196C36.9664 55.195 37.1159 55.1889 37.1689 55.1336C36.9914 55.0324 36.7827 55.0293 36.5865 55.0047H34.9984C34.5562 54.9618 34.0954 54.9556 33.6781 54.7899C33.566 54.747 33.4632 54.6426 33.3574 54.7531C33.1986 54.8083 33.0304 54.8452 32.8622 54.8574C32.5695 54.8789 32.2799 54.8206 32.009 54.7132C32.2021 54.4462 32.4356 54.216 32.6505 53.9674C32.4792 53.9398 32.3111 53.903 32.1398 53.8631C32.4419 53.6575 32.7221 53.4243 33.0179 53.2064L33.0273 53.2094Z" fill="#FFD700"/>
<path d="M46.0094 56.0451C45.4053 56.4011 44.9444 55.7689 44.44 55.5786C44.0787 55.772 44.0445 56.4164 43.7082 56.7233C43.3065 57.1745 42.8114 56.5975 42.8487 56.1525C42.3661 56.5515 42.1232 57.4599 41.3447 57.3402C40.9741 57.0425 40.7001 56.4195 40.4198 57.1284C40.1894 57.4752 39.576 57.9693 39.2583 57.4445C39.1587 56.9811 38.9251 56.4379 38.6698 57.1714C38.4954 57.69 37.9318 58.0737 37.3869 57.8466C37.0879 57.6072 37.6266 56.7203 37.2467 56.7816C36.68 57.1499 36.3499 58.0675 35.559 57.9939C35.2507 57.6532 35.7458 57.0793 35.4095 56.7018C35.0109 57.2051 34.5718 57.9417 33.8836 57.9939C33.5505 57.7269 33.8961 56.9658 33.6844 56.8553C32.9775 57.2727 32.2332 58.0153 31.3458 57.7821C31.6914 56.4778 33.1363 56.0205 34.3539 55.9193C36.4464 55.6646 38.6449 56.131 40.6596 55.3884C40.9835 55.1919 41.7713 54.9157 41.491 54.4646C41.2419 54.1086 42.1388 54.2467 42.2228 53.8293C42.1699 53.3015 42.6339 53.3751 43.0854 53.326C45.1188 53.2401 47.1242 53.6606 49.1514 53.7342C49.304 54.7071 48.2079 55.3914 47.3266 55.0907C46.9062 55.1582 46.2741 54.1362 46.3986 54.8789C46.3146 55.2687 46.3737 55.7842 46.0125 56.0451M28.7238 54.0534C29.194 54.4769 29.5241 53.9736 29.9632 53.7894C31.4392 53.2892 32.7253 52.4146 33.9926 51.543C34.7618 50.9169 35.4282 50.1037 36.4589 49.9011C38.4736 49.2996 40.6129 49.3733 42.6339 48.8209C44.1722 46.7432 46.7879 46.0036 48.977 44.8098C49.469 44.6594 49.659 44.2605 49.8147 43.8185C50.6492 42.5173 51.7889 41.3665 53.1373 40.5778C53.7756 40.234 54.5354 40.0376 55.2547 40.1941C55.2018 41.0412 54.7098 41.79 54.115 42.3761C54.6008 42.3669 55.0212 42.0631 55.5132 42.0785C55.6814 42.947 54.7285 43.4012 54.224 43.9444C54.5074 44.0088 55.5879 44.0886 54.9994 44.3679C54.2489 44.8804 53.3926 45.2333 52.6982 45.8287C53.3365 45.9422 53.4113 46.0773 52.7605 46.3044C52.4086 46.5407 51.7329 46.6205 51.6675 47.0808C52.1501 47.3723 51.4464 47.6639 51.1723 47.759C50.6523 47.8787 50.1043 48.1027 50.7956 48.4894C50.534 48.8792 49.9735 48.962 49.5157 48.9221C49.6558 49.3641 49.8551 49.8582 49.2759 50.0515C47.9743 51.0213 46.4454 51.7271 44.8074 51.8898C46.8533 52.0463 48.9583 51.6719 50.7084 50.5732C50.9388 50.3032 52.1501 50.0147 51.4713 49.7906C51.1537 49.6587 50.4686 49.5144 50.4219 49.2751C51.3685 48.6981 52.5612 48.9037 53.5794 48.5631C53.6044 48.2378 52.8041 48.3298 52.5051 48.2531C51.792 48.1948 51.8356 48.0168 52.5207 47.9493C53.3895 47.7222 54.3735 47.6792 55.1053 47.1207C54.5105 46.8476 53.7632 47.0869 53.1279 46.866C54.2053 46.4026 55.4727 46.3565 56.4412 45.6568C56.8802 45.175 55.8775 45.3254 55.5848 45.3376C54.9901 45.4389 54.7129 45.1596 55.3918 44.9141C56.547 44.0733 58.0106 43.527 58.8233 42.3086C59.0164 42.0355 59.2749 41.213 58.6614 41.5107C57.8549 41.7746 57.1449 42.6677 56.2263 42.3915C58.0386 41.0074 59.7606 39.433 61 37.518C61.0654 36.9656 60.1841 36.9073 59.9568 37.34C58.7922 38.4449 57.7397 39.7491 56.2481 40.4427C57.6743 39.0863 58.8545 37.4781 59.8852 35.8117C60.1063 35.3176 60.698 34.7192 60.3772 34.1699C59.8572 33.7463 59.2095 34.133 58.9386 34.6394C58.0324 35.8025 57.3473 37.1621 56.1827 38.1103C57.201 36.1953 58.2566 34.1545 58.2815 31.9449C58.2815 31.4907 58.185 30.8186 57.5591 30.9045C57.0608 30.9935 57.1792 31.7239 56.9737 32.0953C56.5221 33.6052 56.3104 35.2409 55.3855 36.5636C55.5942 35.336 55.9585 34.0563 55.6782 32.8195C55.5475 32.2671 54.6413 32.5034 54.7565 33.0528C53.6729 38.4633 49.989 43.1955 45.1717 45.933C42.9671 47.1637 40.5008 47.9554 37.9941 48.3145C37.3183 48.4587 36.5897 48.3759 35.9451 48.5999C34.3819 49.7814 33.4383 51.7548 31.461 52.3747C30.5735 52.8074 29.4182 52.8964 28.7861 53.7097C28.73 53.814 28.7207 53.9337 28.7207 54.0472" fill="#FFD700"/>
<path d="M34.6372 48.5661C34.3445 49.0878 34.1732 49.6894 33.7996 50.1558C32.6692 49.1431 31.0344 49.1768 29.602 49.1093C28.4186 49.048 27.1357 48.9405 26.2202 48.1089C25.258 47.3324 24.4733 46.3228 23.3989 45.6936C22.418 45.4297 21.4278 45.1013 20.64 44.4384C18.9553 43.085 17.99 41.0749 16.3427 39.6785C16.0282 39.3747 15.6576 39.1384 15.3058 38.8806C14.9726 38.9604 15.122 39.6724 14.7141 39.3103C14.493 39.1538 13.9356 39.1384 13.8858 39.3563C14.3903 40.01 14.8947 40.7557 14.9632 41.5935C14.6207 41.6273 14.0104 41.523 13.8391 41.6488C14.2937 42.324 14.8792 42.9193 15.5455 43.395C15.2279 43.4441 14.5989 43.4165 14.4775 43.5454C15.1376 44.0763 15.8445 44.6164 16.707 44.7515C16.8845 44.9816 16.4486 45.4236 16.816 45.62C17.0278 45.7059 17.7284 45.8471 17.2458 46.0864C16.9157 46.3074 17.0371 46.8199 17.4606 46.8076C17.7284 46.9427 18.3294 46.9764 18.3761 47.2097C18.1395 47.449 17.4015 47.7283 18.0305 47.9523C18.6159 48.2746 19.2854 48.4802 19.958 48.5048C19.6217 48.784 19.2076 48.9405 18.8619 49.2045C20.4095 50.0975 22.1222 50.6868 23.8162 51.2514C24.4919 51.4724 25.1739 51.6811 25.8714 51.81C23.8411 51.6934 21.8762 51.1011 20.0265 50.2909C19.0674 49.8766 18.1021 49.4745 17.1181 49.1185C17.5478 48.8976 18.046 48.8423 18.4945 48.6521C17.5665 48.4679 16.5545 48.4096 15.7386 47.9063C15.8632 47.6854 16.3365 47.6761 16.5981 47.5657C17.0901 47.449 17.3952 47.3079 16.7008 47.2649C16.0002 47.0777 15.1968 47.1606 14.5802 46.7463C14.6207 46.4977 15.2653 46.5836 15.53 46.4762C15.86 46.421 16.2306 46.3719 16.4953 46.154C15.4116 45.712 13.9948 46.0251 13.1478 45.0829C12.9516 44.7238 13.755 45.0123 13.9854 44.954C14.5678 44.954 15.1905 45.1351 15.7448 44.9049C14.1661 44.2205 12.4752 43.5822 11.2732 42.3178C11.1393 42.1153 10.7376 41.5598 11.0614 41.4923C11.9987 41.615 12.6776 42.6216 13.6803 42.4651C13.8142 42.2871 13.098 41.9986 12.9205 41.747C11.4476 40.5041 10.0276 39.163 9.00311 37.5456C8.93149 37.0055 9.79406 36.9227 10.0214 37.3431C11.1393 38.4049 12.1482 39.6417 13.5402 40.366C14.0353 40.6023 13.2568 40.0867 13.154 39.8995C11.868 38.4264 10.6442 36.8736 9.74423 35.1396C9.58231 34.8266 9.31762 34.2619 9.79717 34.0962C10.2798 33.8599 10.7563 34.1821 10.9992 34.5903C11.9458 35.7657 12.6402 37.162 13.8173 38.141C12.8146 36.2229 11.7434 34.2005 11.7154 31.994C11.7403 31.5643 11.7683 30.9168 12.3568 30.9352C12.852 30.8615 12.7741 31.4845 12.936 31.7822C13.4218 33.4057 13.6367 35.1611 14.6145 36.5943C14.3996 35.3913 14.082 34.1514 14.2906 32.9269C14.3404 32.5249 14.7982 32.4021 15.0971 32.6477C15.34 33.2307 15.3898 33.9519 15.6109 34.578C16.8659 38.81 19.684 42.5326 23.3585 45.0307C26.3852 47.0746 29.9756 48.2961 33.6376 48.5109C33.9677 48.5385 34.3009 48.5477 34.631 48.5692" fill="#FFD700"/>
<path d="M29.985 54.1761C30.0933 54.1761 30.1812 54.0896 30.1812 53.9828C30.1812 53.876 30.0933 53.7894 29.985 53.7894C29.8767 53.7894 29.7888 53.876 29.7888 53.9828C29.7888 54.0896 29.8767 54.1761 29.985 54.1761Z" fill="#FFD700"/>
<path d="M29.9694 53.8723C30.013 53.8723 30.0504 53.9091 30.0504 53.9521C30.0504 53.9951 30.013 54.0319 29.9694 54.0319C29.9258 54.0319 29.8884 53.9951 29.8884 53.9521C29.8884 53.9091 29.9258 53.8723 29.9694 53.8723Z" fill="#FFD700"/>
<path d="M29.9694 54.0841C29.8947 54.0841 29.8355 54.0257 29.8355 53.9521C29.8355 53.8784 29.8947 53.8201 29.9694 53.8201C30.0441 53.8201 30.1033 53.8784 30.1033 53.9521C30.1033 54.0257 30.0441 54.0841 29.9694 54.0841Z" fill="#00AFCA"/>
</g>
<defs>
<clipPath id="clip0_16332_64">
<rect width="52" height="46" fill="white" transform="translate(9 12)"/>
</clipPath>
</defs>
</svg>
