<svg width="12" height="12" viewBox="0 0 12 12" fill="none" xmlns="http://www.w3.org/2000/svg">
<path d="M2 6.49988L2.00002 6.96281L2 6.97102V9.99977L4 9.99988L4.5 8.99988H7.5L8 9.99977H10V6.49988C9.99925 7.05152 9.55237 7.49988 9.00055 7.49988H2.99945C2.44719 7.49988 2.00004 7.05213 2 6.49988Z" fill="#21201F"/>
<path fill-rule="evenodd" clip-rule="evenodd" d="M6.00001 2.49988C5.21996 2.49988 4.46474 2.57404 3.73436 2.72237C3.09286 2.85264 2.58741 3.34469 2.44231 3.98017L2.21213 4.98829L2.21015 4.99988H1.25C1.11193 4.99988 1 5.11181 1 5.24988V5.99988L2 6.49988C2 6.49988 2 6.99988 6 6.99988C9.9752 6.99988 9.99985 6.506 10 6.49988L11 5.99988V5.24988C11 5.11181 10.8881 4.99988 10.75 4.99988H9.78987L9.78789 4.98829L9.5577 3.98017C9.41261 3.3447 8.90716 2.85265 8.26567 2.72237C7.53529 2.57404 6.78007 2.49988 6.00001 2.49988ZM8.95395 5.15405L9.06974 5.83324C8.39078 5.68781 7.26806 5.49988 6 5.49988C4.73195 5.49988 3.60925 5.68781 2.93028 5.83324L3.04607 5.15405L3.27098 4.16899C3.34135 3.8608 3.58741 3.61917 3.90352 3.55497C4.5757 3.41847 5.27413 3.34949 6.00001 3.34949C6.72589 3.34949 7.42432 3.41847 8.09649 3.55497C8.41261 3.61917 8.65866 3.86081 8.72903 4.16899L8.95395 5.15405Z" fill="#21201F"/>
</svg>
