<svg width="206" height="48" viewBox="0 0 206 48" fill="none" xmlns="http://www.w3.org/2000/svg">
<path d="M148.47 19.8248C148.47 34.0885 144.909 37.6495 130.645 37.6495C116.381 37.6495 112.82 34.0885 112.82 19.8248C112.82 5.56105 116.381 2 130.645 2C144.909 2 148.47 5.56105 148.47 19.8248Z" fill="#FFD700"/>
<path d="M140.338 27.3449C138.187 29.2605 135.379 30.4158 132.316 30.4158C125.891 30.4158 121.076 25.3976 121.076 19.6616C121.076 14.2677 125.341 9.86334 130.629 9.86334C135.619 9.86334 139.22 13.765 139.22 17.9894C139.22 21.9493 136.122 25.1613 132.316 25.1613C128.834 25.1613 126.376 22.5014 126.376 19.6616C126.376 17.1128 128.331 15.1179 130.631 15.1179C132.666 15.1179 133.922 16.6136 133.922 17.9894C133.922 19.1836 133.089 19.905 132.316 19.905C132.043 19.905 131.939 19.8468 131.829 19.778C132.078 19.4552 132.201 19.0354 132.139 18.598C132.015 17.7531 131.24 17.1692 130.406 17.2945C129.692 17.4021 129.238 17.8924 129.013 18.2558C128.759 18.6632 128.624 19.1536 128.624 19.6616C128.624 21.6882 130.497 22.9988 132.316 22.9988C134.974 23.0005 136.973 20.6599 136.973 17.9894C136.973 14.721 134.163 12.0241 130.631 12.0241C126.528 12.0241 123.325 15.5271 123.325 19.6616C123.325 24.3464 127.286 28.2533 132.318 28.2533C137.88 28.2533 142.272 23.5826 142.272 17.9877C142.272 11.9729 137.223 6.76953 130.631 6.76953C123.618 6.76953 118.027 12.6008 118.027 19.6616C118.027 27.2003 124.303 33.5096 132.318 33.5096C136.152 33.5096 139.669 32.058 142.352 29.6697L140.338 27.3449Z" fill="#230F0A"/>
<path d="M13.027 32.8982H17.6494V6.34766H10.9258C4.16405 6.34766 0.611236 9.82406 0.611236 14.9432C0.611236 19.0308 2.55955 21.4375 6.03596 23.9207L0 32.8982H5.0045L11.7281 22.851L9.39775 21.2847C6.57079 19.3746 5.19551 17.8847 5.19551 14.6757C5.19551 11.8488 7.18202 9.93867 10.964 9.93867H13.027V32.8982ZM73.7303 31.5993V27.8937C72.3169 28.8488 69.9483 29.6892 67.7326 29.6892C64.409 29.6892 63.1483 28.1229 62.9573 24.914H73.9214V22.5072C73.9214 15.8218 70.9798 13.3005 66.4337 13.3005C60.8944 13.3005 58.2584 17.5409 58.2584 23.3477C58.2584 30.0331 61.5438 33.2802 67.3506 33.2802C70.2539 33.2802 72.3933 32.5162 73.7303 31.5993ZM102.153 33.2802C104.254 33.2802 105.744 32.8982 106.852 32.096V28.3904C105.706 29.1926 104.33 29.6892 102.42 29.6892C99.1731 29.6892 97.836 27.1679 97.836 23.1949C97.836 19.0308 99.4787 16.8915 102.458 16.8915C104.216 16.8915 105.935 17.5027 106.852 18.0757V14.2173C105.897 13.6825 104.216 13.3005 101.962 13.3005C96.1551 13.3005 93.1371 17.4645 93.1371 23.3095C93.1371 29.7274 96.0787 33.2802 102.153 33.2802ZM32.0899 13.6825V21.2847H26.0157V13.6825H21.4697V32.8982H26.0157V24.8757H32.0899V32.8982H36.636V13.6825H32.0899ZM57.1506 29.3072H55.1259V13.6825H41.8697V15.3252C41.8697 20.0241 41.5641 26.0982 39.9596 29.3072H38.5461V37.2915H42.7483V32.8982H52.9483V37.2915H57.1506V29.3072ZM88.2472 32.8982H93.4045L86.1079 22.5454L92.5259 13.6825H87.9416L81.5236 22.5454V13.6825H76.9775V32.8982H81.5236V23.4623L88.2472 32.8982ZM66.3573 16.8915C68.6113 16.8915 69.2989 18.7634 69.2989 21.1701V21.5522H62.9573C63.0719 18.496 64.1798 16.8915 66.3573 16.8915ZM50.5798 29.3072H44.1618C45.4225 26.4038 45.7663 21.1701 45.7663 17.8465V17.2735H50.5798V29.3072Z" fill="#FFFAF5"/>
<path d="M154.556 6.39966V32.9223H169.281V29.3352H159.067V21.3974H167.566V17.8101H159.067V9.98691H169.094V6.39966H154.556ZM189.525 29.3352H187.55V13.7268H174.615V15.3678C174.615 20.0617 174.317 26.1295 172.751 29.3352H171.372V37.3109H175.472V32.9223H185.425V37.3109H189.525V29.3352ZM183.114 29.3352H176.851C178.082 26.4348 178.417 21.2066 178.417 17.8865V17.314H183.114V29.3352ZM205.776 19.8328C205.776 15.177 203.465 13.4215 198.768 13.4215C195.824 13.4215 193.512 14.3756 192.17 15.177V18.955C193.363 18.0391 195.973 17.0469 198.246 17.0469C200.371 17.0469 201.34 17.8101 201.34 19.8709V20.9394H200.632C193.848 20.9394 190.828 23.2292 190.828 27.1217C190.828 31.0144 193.14 33.1895 196.569 33.1895C199.178 33.1895 200.297 32.3117 201.154 31.396H201.34C201.378 31.892 201.527 32.5406 201.676 32.9223H206C205.851 31.3577 205.776 29.7931 205.776 28.2283V19.8328ZM201.34 28.3429C200.781 29.1825 199.738 29.8695 198.172 29.8695C196.308 29.8695 195.376 28.7246 195.376 27.0073C195.376 24.7557 196.904 23.9543 200.707 23.9543H201.34V28.3429Z" fill="#FFFAF5"/>
</svg>
