<svg width="24" height="24" viewBox="0 0 24 24" fill="none" xmlns="http://www.w3.org/2000/svg">
<g opacity="0.4">
<path d="M17 2C19.2091 2 21 3.79086 21 6C21 8.20914 19.2091 10 17 10C15.8512 10 14.8165 9.51481 14.0869 8.73926L9.87793 11.0195C9.95702 11.3333 10 11.6616 10 12C10 12.3384 9.95702 12.6667 9.87793 12.9805L14.0869 15.2598C14.8164 14.4845 15.8515 14 17 14C19.2091 14 21 15.7909 21 18C21 20.2091 19.2091 22 17 22C14.7909 22 13 20.2091 13 18C13 17.6589 13.0427 17.3278 13.123 17.0117L8.91699 14.7344C8.18721 15.5126 7.15104 16 6 16C3.79086 16 2 14.2091 2 12C2 9.79086 3.79086 8 6 8C7.15078 8 8.18724 8.48674 8.91699 9.26465L13.123 6.9873C13.0429 6.67149 13 6.34075 13 6C13 3.79086 14.7909 2 17 2ZM17 16C15.8954 16 15 16.8954 15 18C15 19.1046 15.8954 20 17 20C18.1046 20 19 19.1046 19 18C19 16.8954 18.1046 16 17 16ZM6 10C4.89543 10 4 10.8954 4 12C4 13.1046 4.89543 14 6 14C7.10457 14 8 13.1046 8 12C8 10.8954 7.10457 10 6 10ZM17 4C15.8954 4 15 4.89543 15 6C15 7.10457 15.8954 8 17 8C18.1046 8 19 7.10457 19 6C19 4.89543 18.1046 4 17 4Z" fill="#230F0A"/>
</g>
</svg>
