<svg width="100%" height="100%" fill="none" viewBox="0 0 14 14" xmlns="http://www.w3.org/2000/svg"><path d="M6.5 9.271c-.276 0-.536-.03-.779-.092a1.933 1.933 0 0 1-.557-.236V7.764c.162.148.35.265.565.35.219.081.442.122.671.122.3 0 .545-.072.736-.215a.705.705 0 0 0 .285-.585.618.618 0 0 0-.2-.486.723.723 0 0 0-.5-.179.902.902 0 0 0-.421.093.519.519 0 0 0-.229.207h-.807V4.086H8.45v1.071H6.286v.786a1.826 1.826 0 0 1 .793-.171c.228 0 .44.037.635.114a1.457 1.457 0 0 1 .843.843c.081.2.122.423.122.67 0 .296-.055.56-.165.794a1.66 1.66 0 0 1-.443.593 2.04 2.04 0 0 1-.692.364c-.267.08-.56.121-.879.121z" fill="#230F0A"/><circle cx="7" cy="7" r="6" stroke="#230F0A" stroke-width="2"/></svg>