<svg xmlns="http://www.w3.org/2000/svg" fill="none" viewBox="0 0 24 24" id="whatsapp_filled_9a76--inline">
        <path fill="#2cb742" fill-rule="evenodd"
          d="M20.406 3.488A11.82 11.82 0 0 0 11.993 0C5.438 0 .103 5.335.1 11.892a11.87 11.87 0 0 0 1.587 5.945L0 24l6.305-1.654a11.9 11.9 0 0 0 5.683 1.448h.005c6.554 0 11.89-5.336 11.892-11.893a11.82 11.82 0 0 0-3.48-8.413m-5.022 9.928c.273.099 1.734.817 2.03.966.298.149.496.223.57.349.074.123.074.719-.174 1.413-.247.694-1.434 1.327-2.005 1.413-.512.076-1.16.108-1.872-.118-.431-.137-.985-.32-1.694-.626-2.98-1.288-4.927-4.29-5.076-4.488l-.002-.002c-.156-.208-1.212-1.615-1.212-3.072 0-1.462.768-2.181 1.04-2.479.273-.297.595-.372.793-.372s.396.002.57.01c.182.01.427-.068.668.511.248.595.842 2.058.917 2.206.074.15.123.323.024.521-.1.198-.148.322-.297.496-.149.173-.313.387-.446.52-.148.148-.303.309-.13.606.173.298.77 1.27 1.653 2.059 1.136 1.012 2.093 1.326 2.39 1.475s.47.124.644-.075c.173-.197.743-.867.94-1.164.199-.298.397-.249.67-.15"
          clip-rule="evenodd"></path>
      </svg>