<svg width="94" height="36" viewBox="0 0 94 36" fill="none" xmlns="http://www.w3.org/2000/svg">
<path d="M35.1703 17.5851C35.1703 31.6571 31.6571 35.1703 17.5851 35.1703C3.51318 35.1703 0 31.6571 0 17.5851C0 3.51318 3.51318 0 17.5851 0C31.6571 0 35.1703 3.51318 35.1703 17.5851Z" fill="#FFD700"/>
<path d="M27.1476 25.0028C25.025 26.8926 22.2554 28.0324 19.2335 28.0324C12.8947 28.0324 8.14484 23.0817 8.14484 17.4227C8.14484 12.1013 12.3524 7.7562 17.569 7.7562C22.4922 7.7562 26.0443 11.6054 26.0443 15.7731C26.0443 19.6797 22.9881 22.8485 19.2335 22.8485C15.7981 22.8485 13.3734 20.2243 13.3734 17.4227C13.3734 14.9082 15.3022 12.9401 17.5707 12.9401C19.5784 12.9401 20.8174 14.4157 20.8174 15.7731C20.8174 16.9511 19.9954 17.6629 19.2335 17.6629C18.9641 17.6629 18.8611 17.6054 18.753 17.5376C18.9984 17.2191 19.1203 16.805 19.0585 16.3734C18.9367 15.5399 18.1713 14.9639 17.3494 15.0874C16.6441 15.1936 16.1962 15.6773 15.9749 16.0358C15.7243 16.4378 15.5905 16.9215 15.5905 17.4227C15.5905 19.4221 17.4386 20.7151 19.2335 20.7151C21.8555 20.7168 23.8272 18.4076 23.8272 15.7731C23.8272 12.5486 21.0559 9.88788 17.5707 9.88788C13.5227 9.88788 10.3636 13.3438 10.3636 17.4227C10.3636 22.0445 14.2709 25.899 19.2352 25.899C24.7229 25.899 29.0558 21.2911 29.0558 15.7713C29.0558 9.83741 24.0743 4.70398 17.5707 4.70398C10.6519 4.70398 5.13672 10.4569 5.13672 17.4227C5.13672 24.8601 11.328 31.0846 19.2352 31.0846C23.0173 31.0846 26.487 29.6525 29.1347 27.2963L27.1476 25.0028Z" fill="#230F0A"/>
<path d="M46.7131 15.356H49.0151V2.13367H45.6667C42.2993 2.13367 40.53 3.86494 40.53 6.41429C40.53 8.44996 41.5003 9.64853 43.2315 10.8852L40.2256 15.356H42.7179L46.0663 10.3525L44.9057 9.57243C43.4979 8.62118 42.813 7.87921 42.813 6.28111C42.813 4.87326 43.8023 3.92202 45.6858 3.92202H46.7131V15.356ZM76.9438 14.7092V12.8638C76.2399 13.3394 75.0603 13.7579 73.9569 13.7579C72.3017 13.7579 71.6739 12.9779 71.5787 11.3798H77.0389V10.1812C77.0389 6.85186 75.574 5.59621 73.31 5.59621C70.5514 5.59621 69.2387 7.70798 69.2387 10.5998C69.2387 13.9291 70.8748 15.5463 73.7666 15.5463C75.2125 15.5463 76.2779 15.1658 76.9438 14.7092ZM91.0984 15.5463C92.1447 15.5463 92.8867 15.356 93.4384 14.9565V13.1111C92.8677 13.5106 92.1828 13.7579 91.2315 13.7579C89.6144 13.7579 88.9485 12.5023 88.9485 10.5237C88.9485 8.44996 89.7666 7.38456 91.2506 7.38456C92.1257 7.38456 92.9818 7.68896 93.4384 7.97433V6.05281C92.9628 5.78646 92.1257 5.59621 91.0032 5.59621C88.1114 5.59621 86.6085 7.66993 86.6085 10.5808C86.6085 13.7769 88.0734 15.5463 91.0984 15.5463ZM56.2066 5.78646V9.57243H53.1816V5.78646H50.9176V15.356H53.1816V11.3608H56.2066V15.356H58.4705V5.78646H56.2066ZM68.6869 13.5677H67.6786V5.78646H61.077V6.60454C61.077 8.94461 60.9248 11.9696 60.1257 13.5677H59.4218V17.5439H61.5145V15.356H66.5942V17.5439H68.6869V13.5677ZM84.1733 15.356H86.7416L83.1079 10.2003L86.3041 5.78646H84.0211L80.8249 10.2003V5.78646H78.5609V15.356H80.8249V10.6569L84.1733 15.356ZM73.272 7.38456C74.3944 7.38456 74.7369 8.31678 74.7369 9.51536V9.70561H71.5787C71.6358 8.18361 72.1875 7.38456 73.272 7.38456ZM65.4146 13.5677H62.2185C62.8463 12.1218 63.0175 9.51536 63.0175 7.86018V7.57481H65.4146V13.5677Z" fill="#FFFAF5"/>
<path d="M41.1245 19.775V32.9834H48.4895V31.197H43.3806V27.244H47.6318V25.4575H43.3806V21.5615H48.3962V19.775H41.1245ZM58.6157 31.197H57.6275V23.424H51.1576V24.2412C51.1576 26.5788 51.0084 29.6006 50.2253 31.197H49.5354V35.169H51.5864V32.9834H56.5647V35.169H58.6157V31.197ZM55.4087 31.197H52.2762C52.8916 29.7526 53.0593 27.1489 53.0593 25.4955V25.2104H55.4087V31.197ZM66.7442 26.4648C66.7442 24.1462 65.5882 23.2719 63.2389 23.2719C61.766 23.2719 60.6099 23.747 59.9386 24.1462V26.0276C60.5353 25.5715 61.8405 25.0774 62.9779 25.0774C64.0406 25.0774 64.5254 25.4575 64.5254 26.4838V27.0159H64.1711C60.7777 27.0159 59.2674 28.1562 59.2674 30.0947C59.2674 32.0333 60.4234 33.1165 62.1387 33.1165C63.444 33.1165 64.0033 32.6793 64.4321 32.2233H64.5254C64.544 32.4703 64.6186 32.7934 64.6932 32.9834H66.8561C66.7815 32.2043 66.7442 31.4251 66.7442 30.6458V26.4648ZM64.5254 30.7029C64.2457 31.121 63.7237 31.4631 62.9406 31.4631C62.0083 31.4631 61.5422 30.8929 61.5422 30.0378C61.5422 28.9164 62.3066 28.5173 64.2084 28.5173H64.5254V30.7029Z" fill="#FFFAF5"/>
</svg>
