<svg width="83" height="14" viewBox="0 0 83 14" fill="none" xmlns="http://www.w3.org/2000/svg">
<path d="M50.4446 13.3619C54.1693 13.3619 57.1881 10.3707 57.1881 6.68092C57.1881 2.99115 54.1693 0 50.4446 0C46.7204 0 43.7012 2.99115 43.7012 6.68092C43.7012 10.3707 46.7204 13.3619 50.4446 13.3619Z" fill="#230F0A"/>
<path d="M53.4745 6.68101C53.4745 4.66412 54.9404 3.31953 54.9404 3.31953L53.838 2.22705C53.838 2.22705 52.4442 3.67969 50.445 3.67969C48.4453 3.67969 47.052 2.22705 47.052 2.22705L45.9492 3.31953C45.9492 3.31953 47.4155 4.66412 47.4155 6.68101C47.4155 8.69789 45.9492 10.0425 45.9492 10.0425L47.052 11.135C47.052 11.135 48.4332 9.6823 50.445 9.6823C52.4564 9.6823 53.838 11.135 53.838 11.135L54.9404 10.0425C54.9404 10.0425 53.4745 8.69789 53.4745 6.68101Z" fill="#FFC806"/>
<path d="M4.9137 11.4473H6.65727V1.52539H4.12118C1.57066 1.52539 0.230555 2.82451 0.230555 4.73752C0.230555 6.26504 0.965448 7.16443 2.27673 8.09239L0 11.4473H1.88767L4.42378 7.69263L3.54478 7.10734C2.47847 6.39352 1.95972 5.83675 1.95972 4.63756C1.95972 3.58114 2.70902 2.86734 4.13557 2.86734H4.9137V11.4473ZM27.8107 10.9619V9.57708C27.2775 9.93397 26.3842 10.2481 25.5484 10.2481C24.2947 10.2481 23.8192 9.66274 23.7472 8.46355H27.8828V7.56415C27.8828 5.06584 26.7732 4.12362 25.0585 4.12362C22.9691 4.12362 21.9748 5.70827 21.9748 7.87825C21.9748 10.3766 23.214 11.59 25.4043 11.59C26.4994 11.59 27.3064 11.3045 27.8107 10.9619ZM38.5314 11.59C39.3242 11.59 39.886 11.4473 40.3039 11.1475V9.76266C39.8716 10.0625 39.3531 10.2481 38.6324 10.2481C37.4076 10.2481 36.9032 9.30585 36.9032 7.82112C36.9032 6.26504 37.5228 5.4656 38.6469 5.4656C39.3098 5.4656 39.9582 5.694 40.3039 5.90815V4.46625C39.9438 4.2664 39.3098 4.12362 38.4596 4.12362C36.2692 4.12362 35.1308 5.67974 35.1308 7.86395C35.1308 10.2623 36.2404 11.59 38.5314 11.59ZM12.1042 4.2664V7.10734H9.813V4.2664H8.09827V11.4473H9.813V8.44928H12.1042V11.4473H13.8189V4.2664H12.1042ZM21.5569 10.1053H20.7932V4.2664H15.793V4.88027C15.793 6.63623 15.6777 8.90613 15.0725 10.1053H14.5394V13.089H16.1244V11.4473H19.9718V13.089H21.5569V10.1053ZM33.2864 11.4473H35.2317L32.4795 7.57845L34.9003 4.2664H33.1711L30.7503 7.57845V4.2664H29.0356V11.4473H30.7503V7.92108L33.2864 11.4473ZM25.0296 5.4656C25.8798 5.4656 26.1392 6.16512 26.1392 7.06451V7.20726H23.7472C23.7904 6.0652 24.2083 5.4656 25.0296 5.4656ZM19.0784 10.1053H16.6576C17.1331 9.02031 17.2628 7.06451 17.2628 5.82249V5.60835H19.0784V10.1053Z" fill="#230F0A"/>
<path d="M60.7852 1.52539V11.4473H62.5288V2.86734H65.6414V11.4473H67.3846V1.52539H60.7852Z" fill="#230F0A"/>
<path d="M70.4055 4.26626H68.8203V13.5171H70.5351V10.6048C70.9673 11.2472 71.6013 11.5899 72.3364 11.5899C74.0078 11.5899 75.1607 10.2622 75.1607 7.84954C75.1607 5.45115 74.0367 4.12347 72.423 4.12347C71.6158 4.12347 70.9529 4.49467 70.4921 5.19418L70.4055 4.26626ZM71.9041 10.2479C70.9962 10.2479 70.5351 9.51985 70.5351 7.8638C70.5351 6.1935 71.0251 5.46545 71.9907 5.46545C72.9271 5.46545 73.3883 6.1935 73.3883 7.84954C73.3883 9.51985 72.8982 10.2479 71.9041 10.2479Z" fill="#230F0A"/>
<path d="M79.2204 4.12354C77.3328 4.12354 76.0215 5.45121 76.0215 7.86386C76.0215 10.2623 77.3328 11.5899 79.2204 11.5899C81.108 11.5899 82.4193 10.2623 82.4193 7.8496C82.4193 5.45121 81.108 4.12354 79.2204 4.12354ZM79.2204 10.248C78.2696 10.248 77.794 9.51991 77.794 7.86386C77.794 6.19356 78.2696 5.46551 79.2204 5.46551C80.1716 5.46551 80.6472 6.19356 80.6472 7.8496C80.6472 9.51991 80.1716 10.248 79.2204 10.248Z" fill="#230F0A"/>
</svg>
