<svg xmlns="http://www.w3.org/2000/svg" fill="none" viewBox="-4 -4 32 32" >
        <path fill="currentColor" d="M19.95 4.036C18.77 2.883 17.762 2 16.419 2c-1.335 0-2.344.881-3.533 2.041l-.221.221c-1.15 1.178-2.029 2.186-2.033 3.522-.002 1.058.557 1.913 1.369 2.818l-1.405 1.388c-.893-.801-1.746-1.356-2.81-1.356-1.333 0-2.343.881-3.53 2.041l-.222.22C2.883 14.073 2.002 15.08 2 16.419c-.002 1.333.879 2.344 2.049 3.544C5.229 21.117 6.237 22 7.573 22h.007c1.336 0 2.344-.881 3.539-2.049l.211-.214c1.152-1.178 2.035-2.185 2.038-3.523.003-1.052-.552-1.905-1.36-2.808l1.407-1.389c.889.796 1.738 1.348 2.788 1.348h.009c1.336 0 2.344-.881 3.541-2.049l.209-.213C21.114 9.925 21.997 8.918 22 7.58c.005-1.331-.878-2.343-2.05-3.544M11.368 16.21c-.001.472-.37 1.009-1.467 2.127l-.194.198C8.586 19.632 8.049 20 7.577 20h-.004c-.469 0-1.004-.37-2.108-1.45C4.356 17.411 4 16.895 4 16.424c.002-.475.371-1.012 1.455-2.121l.204-.204c1.123-1.095 1.659-1.465 2.138-1.465.352 0 .742.21 1.383.772l-1.422 1.423a.5.5 0 0 0 0 .707l.707.707a.5.5 0 0 0 .707 0l1.422-1.422c.574.653.775 1.033.774 1.389m7.164-6.506-.191.197c-1.123 1.095-1.66 1.464-2.134 1.464h-.004c-.349 0-.735-.208-1.372-.765l1.42-1.42a.5.5 0 0 0 0-.706l-.707-.707a.5.5 0 0 0-.707 0l-1.42 1.42c-.58-.658-.785-1.042-.785-1.399.002-.472.37-1.009 1.457-2.121l.202-.203C15.413 4.369 15.95 4 16.429 4c.467 0 1.002.37 2.106 1.449 1.11 1.14 1.467 1.655 1.465 2.126-.001.473-.37 1.01-1.468 2.129"></path>
      </svg>