<svg width="12" height="12" viewBox="0 0 12 12" fill="none" xmlns="http://www.w3.org/2000/svg">
<path fill-rule="evenodd" clip-rule="evenodd" d="M9.03673 2.81879C9.03673 3.58833 8.41289 4.21217 7.64335 4.21217C6.87381 4.21217 6.24998 3.58833 6.24998 2.81879C6.24998 2.04925 6.87381 1.42542 7.64335 1.42542C8.41289 1.42542 9.03673 2.04925 9.03673 2.81879ZM1.56474 5.37173C1.82556 4.8737 2.34965 4.57018 2.91143 4.59182C3.14942 4.60099 3.43166 4.60565 3.74286 4.61079C4.36968 4.62115 5.11401 4.63345 5.85099 4.6884C5.99734 6.63064 5.42303 7.85187 4.57497 8.65004L4.42498 9.7L1.82498 9.55L2.24998 6.35L1.27429 5.92632L1.56474 5.37173ZM4.42497 9.70004L4.29997 10.5C4.52178 10.5 5.00811 10.5055 5.59325 10.5122L5.59379 10.5122L5.59394 10.5122H5.59405C6.47775 10.5223 7.58659 10.5349 8.34998 10.5349C8.53275 9.94054 8.68252 9.32808 8.80738 8.6546L9.68728 10.5366C10.2539 10.0889 10.4658 9.32607 10.2113 8.65028L9.1872 5.93156C9.17091 5.88831 9.14427 5.85184 9.11109 5.82402C9.08188 5.72297 9.03106 5.63042 8.95214 5.55636C8.4808 5.11405 7.59015 4.88449 6.60443 4.76197C6.78841 6.95185 6.04174 8.67384 4.42497 9.70004Z" fill="#21201F"/>
</svg>
