<svg width="24" height="24" viewBox="0 0 24 24" fill="none" xmlns="http://www.w3.org/2000/svg">
<path fill-rule="evenodd" clip-rule="evenodd" d="M5.58944 2.91001C5 3.87188 5 5.18126 5 7.8V16.2C5 18.8187 5 20.1281 5.58944 21.09C5.91926 21.6282 6.37178 22.0807 6.91001 22.4106C7.87188 23 9.18126 23 11.8 23H12.2C14.8187 23 16.1281 23 17.09 22.4106C17.6282 22.0807 18.0807 21.6282 18.4106 21.09C19 20.1281 19 18.8187 19 16.2V7.8C19 5.18126 19 3.87188 18.4106 2.91001C18.0807 2.37178 17.6282 1.91926 17.09 1.58944C16.1281 1 14.8187 1 12.2 1H11.8C9.18126 1 7.87188 1 6.91001 1.58944C6.37178 1.91926 5.91926 2.37178 5.58944 2.91001ZM14 5V3H10V5H14Z" fill="#CCC8C4"/>
</svg>
