<svg width="71" height="70" viewBox="0 0 71 70" fill="none" xmlns="http://www.w3.org/2000/svg">
<g clip-path="url(#clip0_16332_369)">
<rect x="5.66669" y="5" width="60" height="60" rx="30" fill="#009AB6"/>
<rect x="0.366882" y="25.9" width="71" height="18.8" fill="white"/>
<rect x="0.366882" y="25.9" width="71" height="18.8" stroke="#FF0100"/>
<rect width="61.2" height="21" transform="translate(4.66663 4.40002)" fill="#009AB6"/>
<path d="M24.2457 10.1549C26.6773 10.155 28.7896 11.5159 29.8658 13.5172C28.9997 12.4753 27.6948 11.8112 26.234 11.8112C23.6262 11.8112 21.5116 13.9251 21.5114 16.5328C21.5114 19.1407 23.6261 21.2555 26.234 21.2555C27.695 21.2554 28.9997 20.5906 29.8658 19.5485C28.7897 21.5503 26.6776 22.9126 24.2457 22.9127C20.7229 22.9127 17.867 20.0566 17.8668 16.5338C17.8668 13.0108 20.7228 10.1549 24.2457 10.1549Z" fill="#FFFAF5"/>
<path d="M32.2229 19.3506C32.2579 19.271 32.3705 19.2711 32.4055 19.3506L32.8459 20.3555C32.8605 20.3886 32.892 20.4115 32.928 20.4151L34.0198 20.5235C34.1063 20.5323 34.1413 20.6394 34.0764 20.6973L33.2571 21.4268C33.2301 21.4508 33.2181 21.4872 33.2258 21.5225L33.4602 22.5938C33.4788 22.6789 33.3869 22.746 33.3118 22.7022L32.3645 22.1475C32.3334 22.1295 32.295 22.1295 32.2639 22.1475L31.3167 22.7022C31.2415 22.7458 31.1506 22.6788 31.1692 22.5938L31.4036 21.5225C31.4112 21.4874 31.3991 21.4508 31.3723 21.4268L30.552 20.6973C30.4874 20.6394 30.5224 20.5324 30.6086 20.5235L31.7004 20.4151C31.7364 20.4115 31.768 20.3886 31.7825 20.3555L32.2229 19.3506ZM36.7375 19.3506C36.7725 19.2708 36.8862 19.2708 36.9211 19.3506L37.3616 20.3555C37.3761 20.3885 37.4068 20.4115 37.4426 20.4151L38.5344 20.5235C38.6211 20.5321 38.6562 20.6394 38.5911 20.6973L37.7717 21.4268C37.7448 21.4508 37.7328 21.4873 37.7405 21.5225L37.9749 22.5938C37.9935 22.6789 37.9016 22.7462 37.8264 22.7022L36.8801 22.1475C36.8489 22.1293 36.8098 22.1293 36.7786 22.1475L35.8323 22.7022C35.7571 22.7462 35.6652 22.6789 35.6838 22.5938L35.9182 21.5225C35.9259 21.4873 35.9139 21.4508 35.887 21.4268L35.0676 20.6973C35.0025 20.6394 35.0375 20.5321 35.1243 20.5235L36.2161 20.4151C36.2519 20.4115 36.2826 20.3885 36.2971 20.3555L36.7375 19.3506ZM41.2532 19.3506C41.2882 19.2711 41.4008 19.271 41.4358 19.3506L41.8762 20.3555C41.8907 20.3886 41.9223 20.4115 41.9583 20.4151L43.05 20.5235C43.1363 20.5324 43.1713 20.6394 43.1067 20.6973L42.2864 21.4268C42.2596 21.4508 42.2475 21.4874 42.2551 21.5225L42.4895 22.5938C42.5081 22.6788 42.4172 22.7458 42.342 22.7022L41.3948 22.1475C41.3637 22.1295 41.3253 22.1295 41.2942 22.1475L40.3469 22.7022C40.2718 22.746 40.1799 22.6789 40.1985 22.5938L40.4329 21.5225C40.4406 21.4872 40.4286 21.4508 40.4016 21.4268L39.5823 20.6973C39.5174 20.6394 39.5524 20.5323 39.6389 20.5235L40.7307 20.4151C40.7667 20.4115 40.7982 20.3886 40.8127 20.3555L41.2532 19.3506ZM45.7678 19.3506C45.8028 19.2708 45.9164 19.2708 45.9514 19.3506L46.3918 20.3555C46.4063 20.3885 46.4371 20.4114 46.4729 20.4151L47.5647 20.5235C47.6514 20.5321 47.6864 20.6394 47.6213 20.6973L46.802 21.4268C46.7751 21.4508 46.7631 21.4873 46.7708 21.5225L47.0051 22.5938C47.0238 22.6789 46.9319 22.7462 46.8567 22.7022L45.9104 22.1475C45.8792 22.1293 45.84 22.1293 45.8088 22.1475L44.8625 22.7022C44.7873 22.7462 44.6955 22.6789 44.7141 22.5938L44.9485 21.5225C44.9562 21.4872 44.9442 21.4508 44.9172 21.4268L44.0979 20.6973C44.0328 20.6394 44.0678 20.5321 44.1545 20.5235L45.2463 20.4151C45.2822 20.4115 45.3129 20.3885 45.3274 20.3555L45.7678 19.3506ZM50.2834 19.3506C50.3185 19.2711 50.431 19.271 50.4661 19.3506L50.9065 20.3555C50.921 20.3886 50.9526 20.4115 50.9885 20.4151L52.0803 20.5235C52.1666 20.5324 52.2017 20.6394 52.137 20.6973L51.3167 21.4268C51.2899 21.4508 51.2778 21.4874 51.2854 21.5225L51.5198 22.5938C51.5384 22.6788 51.4475 22.7458 51.3723 22.7022L50.425 22.1475C50.394 22.1295 50.3555 22.1295 50.3245 22.1475L49.3772 22.7022C49.302 22.7459 49.2102 22.6788 49.2288 22.5938L49.4641 21.5225C49.4717 21.4874 49.4595 21.4508 49.4329 21.4268L48.6125 20.6973C48.5477 20.6394 48.5828 20.5323 48.6692 20.5235L49.761 20.4151C49.797 20.4115 49.8285 20.3886 49.843 20.3555L50.2834 19.3506ZM36.7375 14.836C36.7725 14.7562 36.8862 14.7562 36.9211 14.836L37.3616 15.8409C37.3761 15.8736 37.407 15.8958 37.4426 15.8995L38.5344 16.0079C38.6211 16.0165 38.6562 16.1247 38.5911 16.1827L37.7717 16.9112C37.7447 16.9352 37.7328 16.9726 37.7405 17.0079L37.9749 18.0792C37.9935 18.1643 37.9016 18.2306 37.8264 18.1866L36.8801 17.6329C36.8489 17.6146 36.8098 17.6146 36.7786 17.6329L35.8323 18.1866C35.7571 18.2306 35.6652 18.1643 35.6838 18.0792L35.9182 17.0079C35.9259 16.9726 35.914 16.9352 35.887 16.9112L35.0676 16.1827C35.0025 16.1247 35.0375 16.0165 35.1243 16.0079L36.2161 15.8995C36.2517 15.8958 36.2826 15.8736 36.2971 15.8409L36.7375 14.836ZM41.2532 14.836C41.2881 14.7562 41.4008 14.7562 41.4358 14.836L41.8762 15.8409C41.8908 15.8738 41.9224 15.8959 41.9583 15.8995L43.05 16.0079C43.1364 16.0168 43.1716 16.1248 43.1067 16.1827L42.2864 16.9112C42.2594 16.9352 42.2474 16.9726 42.2551 17.0079L42.4895 18.0792C42.5081 18.1642 42.4172 18.2304 42.342 18.1866L41.3948 17.6329C41.3637 17.6147 41.3253 17.6148 41.2942 17.6329L40.3469 18.1866C40.2717 18.2306 40.1799 18.1643 40.1985 18.0792L40.4329 17.0079C40.4406 16.9726 40.4286 16.9352 40.4016 16.9112L39.5823 16.1827C39.5172 16.1248 39.5523 16.0166 39.6389 16.0079L40.7307 15.8995C40.7666 15.8959 40.7982 15.8739 40.8127 15.8409L41.2532 14.836ZM45.7678 14.836C45.8028 14.7562 45.9164 14.7562 45.9514 14.836L46.3918 15.8409C46.4064 15.8736 46.4373 15.8958 46.4729 15.8995L47.5647 16.0079C47.6514 16.0165 47.6864 16.1247 47.6213 16.1827L46.802 16.9112C46.775 16.9352 46.763 16.9726 46.7708 17.0079L47.0051 18.0792C47.0238 18.1643 46.9319 18.2306 46.8567 18.1866L45.9104 17.6329C45.8792 17.6146 45.84 17.6146 45.8088 17.6329L44.8625 18.1866C44.7873 18.2306 44.6955 18.1643 44.7141 18.0792L44.9485 17.0079C44.9562 16.9726 44.9442 16.9352 44.9172 16.9112L44.0979 16.1827C44.0328 16.1247 44.0678 16.0165 44.1545 16.0079L45.2463 15.8995C45.282 15.8958 45.3128 15.8736 45.3274 15.8409L45.7678 14.836ZM50.2834 14.836C50.3184 14.7562 50.4311 14.7562 50.4661 14.836L50.9065 15.8409C50.9211 15.8738 50.9527 15.8959 50.9885 15.8995L52.0803 16.0079C52.1668 16.0167 52.2019 16.1248 52.137 16.1827L51.3167 16.9112C51.2897 16.9352 51.2777 16.9726 51.2854 17.0079L51.5198 18.0792C51.5384 18.1643 51.4475 18.2305 51.3723 18.1866L50.425 17.6329C50.3939 17.6147 50.3556 17.6147 50.3245 17.6329L49.3772 18.1866C49.302 18.2306 49.2101 18.1643 49.2288 18.0792L49.4641 17.0079C49.4718 16.9726 49.4598 16.9352 49.4329 16.9112L48.6125 16.1827C48.5475 16.1248 48.5826 16.0166 48.6692 16.0079L49.761 15.8995C49.7969 15.8959 49.8285 15.8739 49.843 15.8409L50.2834 14.836ZM41.2532 10.7715C41.2883 10.6924 41.4007 10.6923 41.4358 10.7715L41.8762 11.7764C41.8907 11.8095 41.9223 11.8324 41.9583 11.836L43.05 11.9444C43.1363 11.9533 43.1711 12.0603 43.1067 12.1182L42.2864 12.8477C42.2596 12.8716 42.2476 12.9083 42.2551 12.9434L42.4895 14.0157C42.5081 14.1007 42.4172 14.1668 42.342 14.1231L41.3948 13.5694C41.3636 13.5512 41.3254 13.5512 41.2942 13.5694L40.3469 14.1231C40.2718 14.167 40.1801 14.1007 40.1985 14.0157L40.4329 12.9434C40.4404 12.9082 40.4285 12.8717 40.4016 12.8477L39.5823 12.1182C39.5177 12.0603 39.5525 11.9531 39.6389 11.9444L40.7307 11.836C40.7667 11.8324 40.7982 11.8095 40.8127 11.7764L41.2532 10.7715ZM45.7678 10.7715C45.8029 10.6921 45.9163 10.6921 45.9514 10.7715L46.3918 11.7764C46.4063 11.8094 46.4371 11.8323 46.4729 11.836L47.5647 11.9444C47.6514 11.953 47.6863 12.0603 47.6213 12.1182L46.802 12.8477C46.7751 12.8716 46.7632 12.9082 46.7708 12.9434L47.0051 14.0157C47.0236 14.1008 46.9319 14.1671 46.8567 14.1231L45.9104 13.5694C45.8792 13.5511 45.84 13.5511 45.8088 13.5694L44.8625 14.1231C44.7874 14.1671 44.6956 14.1008 44.7141 14.0157L44.9485 12.9434C44.956 12.9082 44.9441 12.8717 44.9172 12.8477L44.0979 12.1182C44.033 12.0603 44.0679 11.953 44.1545 11.9444L45.2463 11.836C45.2822 11.8324 45.3129 11.8095 45.3274 11.7764L45.7678 10.7715ZM50.2834 10.7715C50.3186 10.6924 50.4309 10.6923 50.4661 10.7715L50.9065 11.7764C50.921 11.8095 50.9526 11.8324 50.9885 11.836L52.0803 11.9444C52.1666 11.9533 52.2014 12.0603 52.137 12.1182L51.3167 12.8477C51.2899 12.8716 51.2779 12.9083 51.2854 12.9434L51.5198 14.0157C51.5383 14.1007 51.4475 14.1669 51.3723 14.1231L50.425 13.5694C50.3939 13.5512 50.3556 13.5512 50.3245 13.5694L49.3772 14.1231C49.3021 14.167 49.2104 14.1007 49.2288 14.0157L49.4641 12.9434C49.4716 12.9084 49.4596 12.8716 49.4329 12.8477L48.6125 12.1182C48.548 12.0603 48.5828 11.9532 48.6692 11.9444L49.761 11.836C49.797 11.8324 49.8285 11.8095 49.843 11.7764L50.2834 10.7715Z" fill="#FFFAF5"/>
<rect width="61.2" height="19.8" transform="translate(4.66663 45.2)" fill="#1FB53A"/>
</g>
<defs>
<clipPath id="clip0_16332_369">
<rect x="5.66669" y="5" width="60" height="60" rx="30" fill="white"/>
</clipPath>
</defs>
</svg>
