<svg width="94" height="36" viewBox="0 0 94 36" fill="none" xmlns="http://www.w3.org/2000/svg">
<path d="M35.1705 17.5851C35.1705 31.6571 31.6573 35.1703 17.5854 35.1703C3.51343 35.1703 0.000244141 31.6571 0.000244141 17.5851C0.000244141 3.51318 3.51343 0 17.5854 0C31.6573 0 35.1705 3.51318 35.1705 17.5851Z" fill="#FFD700"/>
<path d="M27.1475 25.0028C25.0248 26.8926 22.2552 28.0324 19.2334 28.0324C12.8946 28.0324 8.14471 23.0817 8.14471 17.4227C8.14471 12.1014 12.3523 7.75623 17.5689 7.75623C22.492 7.75623 26.0441 11.6054 26.0441 15.7731C26.0441 19.6797 22.988 22.8485 19.2334 22.8485C15.798 22.8485 13.3733 20.2244 13.3733 17.4227C13.3733 14.9082 15.3021 12.9401 17.5706 12.9401C19.5783 12.9401 20.8172 14.4158 20.8172 15.7731C20.8172 16.9512 19.9953 17.6629 19.2334 17.6629C18.964 17.6629 18.861 17.6055 18.7529 17.5376C18.9983 17.2191 19.1201 16.805 19.0584 16.3734C18.9365 15.5399 18.1712 14.9639 17.3492 15.0875C16.644 15.1936 16.1961 15.6774 15.9747 16.0358C15.7242 16.4378 15.5904 16.9216 15.5904 17.4227C15.5904 19.4222 17.4385 20.7151 19.2334 20.7151C21.8554 20.7168 23.8271 18.4077 23.8271 15.7731C23.8271 12.5486 21.0558 9.88791 17.5706 9.88791C13.5226 9.88791 10.3635 13.3438 10.3635 17.4227C10.3635 22.0446 14.2708 25.899 19.2351 25.899C24.7228 25.899 29.0557 21.2911 29.0557 15.7713C29.0557 9.83744 24.0742 4.70401 17.5706 4.70401C10.6518 4.70401 5.1366 10.4569 5.1366 17.4227C5.1366 24.8601 11.3279 31.0846 19.2351 31.0846C23.0171 31.0846 26.4869 29.6525 29.1346 27.2963L27.1475 25.0028Z" fill="#230F0A"/>
<path d="M46.7136 15.356H49.0156V2.13367H45.6672C42.2998 2.13367 40.5305 3.86494 40.5305 6.41429C40.5305 8.44996 41.5007 9.64853 43.232 10.8852L40.2261 15.356H42.7183L46.0667 10.3525L44.9062 9.57243C43.4984 8.62118 42.8135 7.87921 42.8135 6.28111C42.8135 4.87326 43.8028 3.92202 45.6862 3.92202H46.7136V15.356ZM76.9443 14.7092V12.8638C76.2403 13.3394 75.0608 13.7579 73.9573 13.7579C72.3022 13.7579 71.6744 12.9779 71.5792 11.3798H77.0394V10.1812C77.0394 6.85186 75.5745 5.59621 73.3105 5.59621C70.5519 5.59621 69.2392 7.70798 69.2392 10.5998C69.2392 13.9291 70.8753 15.5463 73.7671 15.5463C75.213 15.5463 76.2784 15.1658 76.9443 14.7092ZM91.0989 15.5463C92.1452 15.5463 92.8872 15.356 93.4389 14.9565V13.1111C92.8682 13.5106 92.1833 13.7579 91.232 13.7579C89.6149 13.7579 88.949 12.5023 88.949 10.5237C88.949 8.44996 89.7671 7.38456 91.251 7.38456C92.1262 7.38456 92.9823 7.68896 93.4389 7.97433V6.05281C92.9633 5.78646 92.1262 5.59621 91.0037 5.59621C88.1119 5.59621 86.609 7.66993 86.609 10.5808C86.609 13.7769 88.0739 15.5463 91.0989 15.5463ZM56.207 5.78646V9.57243H53.1821V5.78646H50.9181V15.356H53.1821V11.3608H56.207V15.356H58.471V5.78646H56.207ZM68.6874 13.5677H67.6791V5.78646H61.0774V6.60454C61.0774 8.94461 60.9252 11.9696 60.1262 13.5677H59.4223V17.5439H61.515V15.356H66.5947V17.5439H68.6874V13.5677ZM84.1738 15.356H86.7421L83.1084 10.2003L86.3046 5.78646H84.0216L80.8254 10.2003V5.78646H78.5614V15.356H80.8254V10.6569L84.1738 15.356ZM73.2724 7.38456C74.3949 7.38456 74.7374 8.31678 74.7374 9.51536V9.70561H71.5792C71.6363 8.18361 72.188 7.38456 73.2724 7.38456ZM65.4151 13.5677H62.2189C62.8468 12.1218 63.018 9.51536 63.018 7.86018V7.57481H65.4151V13.5677Z" fill="#230F0A"/>
<path d="M41.125 19.775V32.9834H48.49V31.197H43.3811V27.244H47.6323V25.4575H43.3811V21.5615H48.3967V19.775H41.125ZM58.6162 31.197H57.628V23.424H51.1581V24.2412C51.1581 26.5788 51.0089 29.6006 50.2258 31.197H49.5359V35.169H51.5868V32.9834H56.5651V35.169H58.6162V31.197ZM55.4092 31.197H52.2767C52.8921 29.7526 53.0598 27.1489 53.0598 25.4955V25.2104H55.4092V31.197ZM66.7447 26.4648C66.7447 24.1462 65.5887 23.2719 63.2394 23.2719C61.7664 23.2719 60.6104 23.747 59.9391 24.1462V26.0276C60.5358 25.5715 61.841 25.0774 62.9784 25.0774C64.0411 25.0774 64.5259 25.4575 64.5259 26.4838V27.0159H64.1716C60.7781 27.0159 59.2679 28.1562 59.2679 30.0947C59.2679 32.0333 60.4239 33.1165 62.1392 33.1165C63.4445 33.1165 64.0038 32.6793 64.4326 32.2233H64.5259C64.5445 32.4703 64.6191 32.7934 64.6937 32.9834H66.8566C66.782 32.2043 66.7447 31.4251 66.7447 30.6458V26.4648ZM64.5259 30.7029C64.2462 31.121 63.7242 31.4631 62.9411 31.4631C62.0088 31.4631 61.5427 30.8929 61.5427 30.0378C61.5427 28.9164 62.3071 28.5173 64.2089 28.5173H64.5259V30.7029Z" fill="#230F0A"/>
</svg>
