<svg width="100%" height="100%" fill="none" viewBox="0 0 23 23" xmlns="http://www.w3.org/2000/svg"><path d="M9 10.024h1.408c.512 0 .917-.101 1.216-.304.31-.203.464-.507.464-.912 0-.373-.15-.656-.448-.848-.288-.203-.704-.304-1.248-.304-.49 0-.987.085-1.488.256-.501.17-.95.41-1.344.72v-2.4a5.26 5.26 0 0 1 1.504-.624A7.303 7.303 0 0 1 10.84 5.4c.63 0 1.19.075 1.68.224.49.15.901.357 1.232.624.341.267.597.592.768.976.181.384.272.805.272 1.264 0 .544-.123 1.035-.368 1.472-.245.427-.57.763-.976 1.008a2.59 2.59 0 0 1 1.216 1.024c.31.459.464 1.024.464 1.696 0 .512-.101.981-.304 1.408a3.13 3.13 0 0 1-.88 1.104c-.384.299-.859.533-1.424.704-.565.17-1.205.256-1.92.256-.768 0-1.44-.08-2.016-.24-.565-.16-.997-.33-1.296-.512v-2.544c.437.341.912.597 1.424.768.512.17 1.045.256 1.6.256.672 0 1.179-.117 1.52-.352.341-.245.512-.581.512-1.008 0-.48-.187-.821-.56-1.024-.373-.203-.88-.304-1.52-.304H9v-2.176z" fill="#230F0A"/><circle cx="11.5" cy="11.5" r="10.5" stroke="#230F0A" stroke-width="2"/></svg>