<svg width="40" height="40" viewBox="0 0 40 40" fill="none" xmlns="http://www.w3.org/2000/svg">
<path fill-rule="evenodd" clip-rule="evenodd" d="M17.63 14.299C18.3284 13.8324 19.1494 13.5833 19.9893 13.5833C21.1156 13.5833 22.1958 14.0308 22.9922 14.8272C23.7886 15.6236 24.236 16.7037 24.236 17.83C24.236 18.6699 23.9869 19.491 23.5203 20.1893C23.0537 20.8877 22.3905 21.432 21.6145 21.7534C20.8385 22.0748 19.9846 22.1589 19.1609 21.9951C18.3371 21.8312 17.5804 21.4268 16.9865 20.8329C16.3926 20.2389 15.9881 19.4823 15.8243 18.6585C15.6604 17.8347 15.7445 16.9809 16.0659 16.2049C16.3874 15.4289 16.9317 14.7657 17.63 14.299ZM21.1449 16.1005C20.8029 15.872 20.4007 15.75 19.9893 15.75C19.4377 15.75 18.9086 15.9691 18.5186 16.3592C18.1285 16.7493 17.9093 17.2784 17.9093 17.83C17.9093 18.2414 18.0313 18.6435 18.2599 18.9856C18.4884 19.3276 18.8133 19.5942 19.1934 19.7517C19.5734 19.9091 19.9917 19.9503 20.3951 19.87C20.7986 19.7898 21.1692 19.5917 21.4601 19.3008C21.751 19.0099 21.9491 18.6393 22.0294 18.2358C22.1096 17.8323 22.0684 17.4141 21.911 17.034C21.7536 16.654 21.487 16.3291 21.1449 16.1005Z" fill="#FFFAF5"/>
<path fill-rule="evenodd" clip-rule="evenodd" d="M18.9176 30.9167H21.0842C21.817 28.9904 23.6544 27.4806 25.178 26.2709C25.8312 25.7522 26.4364 25.2716 26.8905 24.8175C28.2567 23.4539 29.1874 21.7154 29.5647 19.8224C29.942 17.9294 29.7489 15.9669 29.0099 14.1837C28.2708 12.4005 27.0191 10.8768 25.4133 9.80566C23.8075 8.73449 21.9199 8.16407 19.9897 8.16667C18.0594 8.16407 16.1718 8.73449 14.566 9.80566C12.9602 10.8768 11.7085 12.4005 10.9695 14.1837C10.2304 15.9669 10.0373 17.9294 10.4146 19.8224C10.7919 21.7154 11.7226 23.4539 13.0888 24.8175C13.5436 25.2751 14.1533 25.7596 14.8119 26.2829C16.3312 27.4902 18.1753 29.135 18.9176 30.9167ZM25.3599 23.284L25.3584 23.2854C25.022 23.6219 24.5435 24.0079 23.8849 24.531L23.812 24.5889C23.2079 25.0684 22.4928 25.6362 21.817 26.2593C21.2107 26.8183 20.5426 27.6667 19.9897 28.75C19.4592 27.6667 18.7641 26.8173 18.1574 26.2585C17.4864 25.6405 16.7765 25.0765 16.1766 24.5999L16.0906 24.5315C15.4329 24.0088 14.9575 23.6241 14.6256 23.2901L14.6194 23.284C13.5568 22.2234 12.833 20.8713 12.5395 19.3989C12.2461 17.9265 12.3962 16.4002 12.9711 15.0133C13.5459 13.6263 14.5194 12.4412 15.7683 11.6081C16.8178 10.9081 18.5366 10.3333 19.9926 10.3333C21.4485 10.3333 22.962 10.775 24.211 11.6081C25.4599 12.4412 26.4335 13.6263 27.0083 15.0133C27.5831 16.4002 27.7333 17.9265 27.4398 19.3989C27.1464 20.8713 26.4225 22.2234 25.3599 23.284Z" fill="#FFFAF5"/>
</svg>
