<svg width="1209" height="202" viewBox="0 0 1209 202" fill="none" xmlns="http://www.w3.org/2000/svg">
<path d="M655 101C655 60.7467 655 40.6201 664.558 26.1042C668.892 19.5218 674.522 13.8917 681.104 9.5577C695.62 0 715.747 0 756 0V0C796.253 0 816.38 0 830.896 9.5577C837.478 13.8917 843.108 19.5218 847.442 26.1042C857 40.6201 857 60.7467 857 101V101C857 141.253 857 161.38 847.442 175.896C843.108 182.478 837.478 188.108 830.896 192.442C816.38 202 796.253 202 756 202V202C715.747 202 695.62 202 681.104 192.442C674.522 188.108 668.892 182.478 664.558 175.896C655 161.38 655 141.253 655 101V101Z" fill="#FFE033"/>
<path d="M809.606 141.474C797.53 152.135 781.773 158.566 764.581 158.566C728.519 158.566 701.496 130.636 701.496 98.7105C701.496 68.6897 725.434 44.1763 755.112 44.1763C783.12 44.1763 803.329 65.8918 803.329 89.4038C803.329 111.443 785.942 129.32 764.581 129.32C745.037 129.32 731.243 114.516 731.243 98.7105C731.243 84.5247 742.216 73.4215 755.122 73.4215C766.544 73.4215 773.592 81.7465 773.592 89.4038C773.592 96.05 768.916 100.065 764.581 100.065C763.049 100.065 762.463 99.7413 761.848 99.3584C763.244 97.5619 763.937 95.2254 763.586 92.7907C762.893 88.0883 758.538 84.8389 753.862 85.5359C749.85 86.1347 747.302 88.8639 746.043 90.8862C744.617 93.154 743.856 95.8831 743.856 98.7105C743.856 109.99 754.37 117.285 764.581 117.285C779.498 117.294 790.716 104.267 790.716 89.4038C790.716 71.2127 774.949 56.2023 755.122 56.2023C732.092 56.2023 714.119 75.6991 714.119 98.7105C714.119 124.785 736.348 146.53 764.591 146.53C795.812 146.53 820.462 120.534 820.462 89.394C820.462 55.9176 792.121 26.957 755.122 26.957C715.759 26.957 684.383 59.4125 684.383 98.7105C684.383 140.669 719.606 175.785 764.591 175.785C786.108 175.785 805.847 167.705 820.911 154.413L809.606 141.474Z" fill="black"/>
<path d="M74.045 176.944H100.319V26H62.1023C23.6683 26 3.47429 45.7641 3.47429 74.8672C3.47429 98.1062 14.5484 111.789 34.3083 125.906L0 176.944H28.4454L66.6623 119.825L53.4167 110.92C37.3482 100.061 29.5312 91.5905 29.5312 73.3468C29.5312 57.275 40.8226 46.4156 62.3195 46.4156H74.045V176.944ZM419.083 169.56V148.493C411.047 153.923 397.586 158.702 384.991 158.702C366.1 158.702 358.933 149.796 357.848 131.553H420.168V117.87C420.168 79.8625 403.448 65.5281 377.608 65.5281C346.122 65.5281 331.14 89.6359 331.14 122.648C331.14 160.656 349.815 179.116 382.82 179.116C399.322 179.116 411.482 174.773 419.083 169.56ZM580.635 179.116C592.577 179.116 601.047 176.944 607.343 172.384V151.317C600.829 155.877 593.012 158.702 582.154 158.702C563.697 158.702 556.098 144.367 556.098 121.779C556.098 98.1062 565.435 85.9436 582.372 85.9436C592.361 85.9436 602.132 89.4187 607.343 92.6765V70.7406C601.915 67.6999 592.361 65.5281 579.55 65.5281C546.543 65.5281 529.389 89.2015 529.389 122.431C529.389 158.918 546.109 179.116 580.635 179.116ZM182.399 67.6999V110.92H147.873V67.6999H122.033V176.944H147.873V131.336H182.399V176.944H208.239V67.6999H182.399ZM324.843 156.53H313.334V67.6999H237.987V77.039C237.987 103.753 236.25 138.286 227.13 156.53H219.095V201.921H242.981V176.944H300.957V201.921H324.843V156.53ZM501.596 176.944H530.91L489.436 118.087L525.915 67.6999H499.859L463.379 118.087V67.6999H437.54V176.944H463.379V123.3L501.596 176.944ZM377.174 85.9436C389.985 85.9436 393.894 96.5858 393.894 110.269V112.441H357.848C358.499 95.0655 364.797 85.9436 377.174 85.9436ZM287.494 156.53H251.015C258.181 140.023 260.135 110.269 260.135 91.3733V88.1155H287.494V156.53Z" fill="black"/>
<path d="M908.709 26V176.944H994.48V156.53H934.983V111.355H984.491V90.9389H934.983V46.4156H993.394V26H908.709ZM1112.41 156.53H1100.9V67.6999H1025.55V77.039C1025.55 103.753 1023.82 138.286 1014.69 156.53H1006.66V201.921H1030.55V176.944H1088.52V201.921H1112.41V156.53ZM1075.06 156.53H1038.58C1045.75 140.023 1047.7 110.269 1047.7 91.3733V88.1155H1075.06V156.53ZM1207.07 102.45C1207.07 75.9531 1193.61 65.9625 1166.25 65.9625C1149.1 65.9625 1135.63 71.3922 1127.82 75.9531V97.4546C1134.76 92.2421 1149.96 86.5952 1163.21 86.5952C1175.59 86.5952 1181.23 90.9389 1181.23 102.667V108.748H1177.11C1137.59 108.748 1120 121.779 1120 143.932C1120 166.086 1133.46 178.466 1153.44 178.466C1168.64 178.466 1175.15 173.469 1180.15 168.258H1181.23C1181.45 171.081 1182.32 174.773 1183.19 176.944H1208.37C1207.51 168.04 1207.07 159.136 1207.07 150.23V102.45ZM1181.23 150.883C1177.97 155.661 1171.9 159.57 1162.78 159.57C1151.92 159.57 1146.49 153.055 1146.49 143.282C1146.49 130.467 1155.39 125.906 1177.54 125.906H1181.23V150.883Z" fill="black"/>
</svg>
