<svg width="100%" height="100%" fill="none" viewBox="0 0 14 14" xmlns="http://www.w3.org/2000/svg"><path d="M5.379 9.2V8.107c.395-.233.73-.455 1.007-.664.28-.21.51-.41.686-.6.176-.19.304-.372.385-.543.081-.171.122-.338.122-.5a.686.686 0 0 0-.222-.536c-.143-.138-.335-.207-.578-.207-.22 0-.438.04-.657.122a2.142 2.142 0 0 0-.629.37V4.358c.19-.11.417-.193.679-.25.262-.057.523-.086.785-.086.296 0 .56.04.793.122a1.6 1.6 0 0 1 .6.336c.167.142.293.316.379.521.085.205.128.436.128.693 0 .21-.033.416-.1.621a2.09 2.09 0 0 1-.314.615 3.435 3.435 0 0 1-.579.62 6.715 6.715 0 0 1-.885.63H8.85v1.02H5.38z" fill="#230F0A"/><circle cx="7" cy="7" r="6" stroke="#230F0A" stroke-width="2"/></svg>