<svg width="295" height="220" viewBox="0 0 295 220" fill="none" xmlns="http://www.w3.org/2000/svg">
  <rect width="295" height="220" rx="40" fill="#FFD600"/>
  <path d="M34 65c0-16 13-29 29-29h120c16 0 29 13 29 29v66c0 16-13 29-29 29H63c-16 0-29-13-29-29V65Z" fill="#2B2016"/>
  <path d="M45 73c0-14 11-25 25-25h117c14 0 25 11 25 25v61c0 14-11 25-25 25H70c-14 0-25-11-25-25V73Z" fill="#FFE24A"/>
  <path d="M45 88h167v27H45V88Z" fill="#2B2016"/>
  <rect x="65" y="124" width="44" height="24" rx="8" fill="#FFF7B0"/>
  <path d="M226 71c0-25 20-45 45-45s45 20 45 45-20 45-45 45-45-20-45-45Z" fill="#F5B900"/>
  <path d="M237 71c0-19 15-34 34-34s34 15 34 34-15 34-34 34-34-15-34-34Z" fill="#FFD600"/>
  <path d="M260 88V54h14c10 0 17 6 17 15s-7 15-17 15h-7v4h-7Zm7-10h7c6 0 10-3 10-9s-4-9-10-9h-7v18Z" fill="#2B2016"/>
  <path d="M229 151c0-15 12-27 27-27s27 12 27 27-12 27-27 27-27-12-27-27Z" fill="#F5B900"/>
  <path d="M238 151c0-10 8-18 18-18s18 8 18 18-8 18-18 18-18-8-18-18Z" fill="#FFD600"/>
  <path d="M251 161v-22h9c7 0 11 4 11 10s-4 10-11 10h-4v2h-5Zm5-7h4c4 0 6-2 6-5s-2-5-6-5h-4v10Z" fill="#2B2016"/>
  <path d="M66 48c18-16 44-24 76-22" stroke="#FFF3A0" stroke-width="8" stroke-linecap="round"/>
  <path d="M39 151c24 18 59 28 103 29" stroke="#E4A900" stroke-width="9" stroke-linecap="round"/>
</svg>
